<svg width="608" height="353" viewBox="0 0 608 353" fill="none" xmlns="http://www.w3.org/2000/svg">
<path opacity="0.15" d="M549.889 348.829C581.954 348.829 607.949 344.755 607.949 339.728C607.949 334.702 581.954 330.627 549.889 330.627C517.823 330.627 491.829 334.702 491.829 339.728C491.829 344.755 517.823 348.829 549.889 348.829Z" fill="#352C38"/>
<path d="M539.414 54.5572C540.419 58.243 539.265 61.7681 536.836 62.4308C534.408 63.0935 531.624 60.6423 530.618 56.9556C529.612 53.2698 530.767 49.7438 533.195 49.082C535.624 48.4193 538.408 50.8705 539.414 54.5572Z" fill="#965450"/>
<path d="M564.871 87.9369L554.525 85.2404L553.542 70.2845L537.807 64.8629L539.325 88.3145C539.325 88.3145 547.452 102.263 564.871 87.9369Z" fill="#965450"/>
<path d="M538.725 79.0325L537.807 64.8629L553.543 70.2845L554.408 83.4493C549.008 82.67 543.725 81.3161 538.725 79.0325Z" fill="#8E4644"/>
<path d="M538.121 70.7684C538.121 70.7684 549.821 81.2807 557.685 78.7535C566.923 75.7839 568.319 64.424 566.685 51.0916C564.141 30.3332 557.336 29.6273 547.202 31.3976C524.246 35.4092 538.121 70.7684 538.121 70.7684Z" fill="#965450"/>
<path d="M539.51 39.9374C539.51 39.9374 544.155 45.0246 547.915 43.034C551.676 41.0433 548.901 36.6317 548.901 36.6317C548.901 36.6317 551.896 45.9094 558.531 43.9187C565.167 41.9281 559.195 35.5137 559.195 35.5137C559.195 35.5137 568.485 43.4763 572.244 38.1679C576.004 32.8595 565.166 31.7536 565.166 31.7536C565.166 31.7536 578.215 29.9841 573.35 21.8003C568.484 13.6165 559.681 23.0557 559.681 23.0557C559.681 23.0557 563.319 15.8275 558.232 13.3945C553.145 10.9614 550.27 20.6935 550.27 20.6935C550.27 20.6935 553.145 14.2792 548.058 13.3945C542.971 12.5097 545.625 23.3477 545.625 23.3477C545.625 23.3477 542.75 15.1639 539.653 16.0487C536.556 16.9334 538.32 24.0536 538.32 24.0536C538.32 24.0536 531.359 15.9078 524.944 21.6578C518.53 27.4085 533.095 33.9646 533.095 33.9646C533.095 33.9646 524.269 27.1727 520.952 32.0387C517.634 36.9048 527.34 37.4292 527.34 37.4292C527.34 37.4292 518.59 40.6623 522.35 46.4122C526.11 52.1621 533.981 43.0323 533.981 43.0323C533.981 43.0323 531.99 48.3407 535.308 49.0042C538.626 49.6686 539.51 39.9374 539.51 39.9374Z" fill="#352C38"/>
<path d="M540.118 39.4259C540.118 39.4259 543.112 48.2093 537.522 51.4035L538.121 59.1891L535.725 59.9874L534.528 51.8027C534.528 51.8027 531.221 51.1798 531.134 54.3982C530.934 61.7845 535.526 61.9841 535.526 61.9841L538.121 70.7684C538.121 70.7684 528.538 59.9883 528.738 48.0106C528.938 36.033 540.118 39.4259 540.118 39.4259Z" fill="#352C38"/>
<path d="M556.684 63.4417C557.75 62.8965 558.855 62.5034 559.967 62.1318L559.623 62.677C559.382 61.7042 559.154 60.7278 558.951 59.7472C558.744 58.7674 558.556 57.7833 558.388 56.7958C558.054 54.8189 557.778 52.8317 557.685 50.8057C558.391 52.7065 558.912 54.6444 559.377 56.5945C559.608 57.5699 559.82 58.5488 560.011 59.5321C560.208 60.5144 560.379 61.5011 560.538 62.4913L560.613 62.9639L560.195 63.0364C559.041 63.236 557.882 63.4149 556.684 63.4417Z" fill="#76413B"/>
<path d="M545.883 53.0953C545.883 53.0953 545.939 53.2629 546.056 53.5394C546.172 53.8158 546.345 54.2046 546.599 54.6228C546.854 55.0358 547.198 55.4834 547.653 55.7711C548.099 56.0683 548.652 56.1702 549.236 56.108L549.442 56.0787L549.694 56.0303C549.826 55.9992 549.96 55.9663 550.099 55.9188C550.367 55.822 550.611 55.6959 550.824 55.543C551.246 55.2293 551.539 54.7887 551.72 54.3489C551.9 53.9109 551.988 53.497 552.043 53.2033C552.095 52.9086 552.111 52.7307 552.111 52.7307C552.111 52.7307 552.191 52.8905 552.265 53.1955C552.337 53.4987 552.408 53.9515 552.331 54.5096C552.264 55.06 552.003 55.7469 551.436 56.267C551.162 56.5331 550.818 56.7336 550.456 56.8735C550.279 56.9435 550.087 57.0014 549.887 57.0515L549.635 57.0973C549.515 57.1172 549.434 57.1198 549.332 57.1319C548.944 57.1621 548.535 57.1422 548.148 57.0299C547.762 56.915 547.405 56.7215 547.117 56.4804C546.544 55.9827 546.247 55.3702 546.084 54.8544C545.92 54.3325 545.878 53.8875 545.868 53.58C545.86 53.2698 545.883 53.0953 545.883 53.0953Z" fill="#211B23"/>
<path d="M559.117 51.8433C559.117 51.8433 559.174 52.0101 559.295 52.2857C559.414 52.5604 559.592 52.9475 559.851 53.3622C560.111 53.7726 560.46 54.2159 560.918 54.4984C561.367 54.7904 561.922 54.8863 562.504 54.8172L562.711 54.7852L562.961 54.7334C563.092 54.7014 563.226 54.6669 563.365 54.6168C563.632 54.5165 563.874 54.3878 564.086 54.2323C564.503 53.9135 564.792 53.4694 564.967 53.0279C565.143 52.5872 565.227 52.1725 565.278 51.8787C565.326 51.5833 565.34 51.4053 565.34 51.4053C565.34 51.4053 565.422 51.5643 565.499 51.8675C565.575 52.1699 565.651 52.6218 565.581 53.1808C565.519 53.732 565.267 54.4215 564.706 54.9485C564.435 55.2172 564.092 55.4229 563.733 55.5663C563.556 55.638 563.364 55.6985 563.165 55.7512L562.914 55.8004C562.793 55.822 562.714 55.8255 562.612 55.8385C562.224 55.873 561.815 55.8583 561.427 55.7503C561.04 55.6397 560.68 55.4505 560.389 55.2129C559.811 54.7222 559.506 54.1131 559.337 53.599C559.166 53.0797 559.12 52.6347 559.106 52.3272C559.096 52.0187 559.117 51.8433 559.117 51.8433Z" fill="#211B23"/>
<path d="M562.155 66.1771C562.155 66.1771 556.562 72.2553 548.296 66.1771H562.155Z" fill="white"/>
<path d="M552.894 46.6135C552.894 46.6135 552.678 46.6066 552.33 46.5867C551.995 46.5634 551.517 46.5306 550.943 46.4908C550.663 46.4822 550.373 46.4399 550.065 46.4304C549.759 46.407 549.443 46.3854 549.122 46.3742C548.8 46.344 548.474 46.3612 548.147 46.3388C547.822 46.3448 547.496 46.3414 547.174 46.3578C546.859 46.3932 546.531 46.3794 546.23 46.4425C546.077 46.4684 545.923 46.4865 545.768 46.4986C545.615 46.5185 545.476 46.5712 545.327 46.5945C545.177 46.623 545.031 46.6515 544.886 46.6792C544.748 46.7233 544.613 46.7725 544.475 46.8105C544.195 46.8814 543.925 46.9609 543.69 47.0732C543.449 47.176 543.195 47.2425 542.987 47.3358C542.793 47.443 542.601 47.5233 542.443 47.5959C542.126 47.7385 541.913 47.8119 541.913 47.8119C541.913 47.8119 541.959 47.6106 542.092 47.2728C542.16 47.1051 542.242 46.8926 542.361 46.6654C542.483 46.4407 542.66 46.2144 542.858 45.9603C542.959 45.8368 543.064 45.7029 543.185 45.5785C543.318 45.467 543.456 45.3521 543.598 45.2337C543.742 45.1154 543.899 45.0022 544.058 44.8821C544.225 44.7801 544.408 44.6972 544.591 44.6013C544.955 44.4 545.358 44.2626 545.778 44.1632C546.194 44.0233 546.628 44.0207 547.06 43.9662C547.921 43.9403 548.773 44.0509 549.514 44.2937C550.264 44.5123 550.899 44.8631 551.411 45.1931C551.916 45.5474 552.296 45.8886 552.537 46.1625C552.785 46.4278 552.894 46.6135 552.894 46.6135Z" fill="#352C38"/>
<path d="M565.671 47.2123C565.671 47.2123 565.507 47.189 565.222 47.1484C564.96 47.1077 564.585 47.049 564.137 46.979C563.918 46.9583 563.697 46.9056 563.46 46.8866C563.227 46.852 562.988 46.8261 562.747 46.8088C562.506 46.7699 562.266 46.7958 562.026 46.7656C561.794 46.7984 561.551 46.7509 561.329 46.8053L560.989 46.8356L560.662 46.909C560.437 46.9349 560.235 47.0308 560.018 47.0887C559.795 47.1337 559.612 47.2719 559.4 47.3427C559.182 47.4101 559.013 47.5501 558.823 47.6426C558.643 47.7462 558.442 47.8205 558.302 47.9311C558.156 48.0357 558.009 48.1169 557.89 48.1895C557.649 48.332 557.486 48.4098 557.486 48.4098C557.486 48.4098 557.493 48.243 557.551 47.9588C557.613 47.6763 557.689 47.2529 557.954 46.8183C558.086 46.6023 558.204 46.3396 558.422 46.1306C558.638 45.9223 558.836 45.6528 559.132 45.4826C559.419 45.302 559.714 45.0894 560.068 44.9918C560.239 44.9339 560.413 44.8648 560.592 44.8233L561.137 44.7464C561.505 44.6903 561.862 44.7473 562.214 44.7706C562.551 44.8449 562.893 44.9011 563.186 45.0333C563.796 45.2484 564.278 45.594 564.658 45.9059C565.027 46.242 565.29 46.5574 565.447 46.8062C565.61 47.049 565.671 47.2123 565.671 47.2123Z" fill="#352C38"/>
<path d="M563.752 325.525C563.752 325.525 563.533 340.213 564.293 340.361C565.054 340.508 606.985 339.961 597.843 335.557C588.701 331.153 577.857 330.102 577.857 330.102L578.556 319.716L563.752 325.525Z" fill="#3A323F"/>
<path d="M566.251 329.373C565.407 329.303 564.566 329.217 563.724 329.132C563.729 327.057 563.752 325.524 563.752 325.524L578.557 319.715L577.934 328.964C574.137 329.904 570.153 329.696 566.251 329.373Z" fill="#201A23"/>
<path d="M584.469 338.339C584.678 336.053 585.18 333.796 586.06 331.535C590.261 332.344 594.114 333.675 598.183 335.622C599.323 336.168 599.672 336.653 599.417 337.085C599.414 337.089 599.413 337.094 599.411 337.097C599.382 337.144 599.344 337.189 599.301 337.235C599.294 337.242 599.289 337.249 599.282 337.256C599.239 337.299 599.189 337.341 599.133 337.383C599.121 337.392 599.111 337.401 599.098 337.411C599.042 337.452 598.98 337.49 598.913 337.53C598.896 337.541 598.879 337.55 598.862 337.56C598.794 337.598 598.72 337.636 598.642 337.674C598.62 337.684 598.599 337.694 598.576 337.705C598.496 337.741 598.41 337.777 598.32 337.813C598.294 337.823 598.268 337.833 598.243 337.843C598.15 337.878 598.054 337.913 597.953 337.947C597.923 337.957 597.893 337.966 597.862 337.977C597.759 338.011 597.652 338.044 597.54 338.077C597.507 338.087 597.473 338.097 597.438 338.106C597.323 338.139 597.206 338.171 597.083 338.203C597.049 338.212 597.012 338.221 596.978 338.23C596.85 338.262 596.719 338.294 596.584 338.325C596.55 338.333 596.515 338.341 596.481 338.348C596.339 338.38 596.196 338.412 596.045 338.443C596.015 338.449 595.984 338.455 595.954 338.461C595.796 338.493 595.635 338.525 595.468 338.556C595.451 338.559 595.433 338.562 595.416 338.565C594.289 338.774 592.977 338.961 591.54 339.127C591.497 339.132 591.455 339.137 591.413 339.141C591.232 339.162 591.049 339.182 590.864 339.202C590.785 339.211 590.706 339.219 590.625 339.228C590.46 339.245 590.292 339.262 590.124 339.28C590.019 339.29 589.915 339.301 589.81 339.312C589.659 339.326 589.506 339.341 589.353 339.356C589.228 339.368 589.103 339.38 588.977 339.391C588.829 339.405 588.68 339.418 588.529 339.432C588.399 339.443 588.269 339.455 588.137 339.466C587.991 339.479 587.844 339.491 587.697 339.504C587.553 339.516 587.409 339.528 587.264 339.539C587.126 339.55 586.989 339.561 586.851 339.572C586.695 339.584 586.54 339.596 586.383 339.608C586.253 339.618 586.121 339.628 585.989 339.637C585.822 339.65 585.653 339.662 585.485 339.674C585.361 339.682 585.238 339.691 585.113 339.7C584.937 339.712 584.761 339.724 584.584 339.735C584.513 339.739 584.444 339.745 584.373 339.749C575.003 340.361 564.65 340.946 564.274 340.873C564.136 340.846 563.9 340.137 563.975 339.052C567.119 339.058 576.249 338.903 584.469 338.339Z" fill="#FDEDEE"/>
<path d="M584.163 331.087C584.163 331.087 583.122 332.655 582.974 334.175" stroke="#FDEDEE" stroke-width="0.8966" stroke-miterlimit="10" stroke-linecap="round"/>
<path d="M579.899 330.26C579.899 330.26 578.858 331.829 578.71 333.348" stroke="#FDEDEE" stroke-width="0.8966" stroke-miterlimit="10" stroke-linecap="round"/>
<path d="M582.017 330.745C582.017 330.745 580.975 332.313 580.828 333.833" stroke="#FDEDEE" stroke-width="0.8966" stroke-miterlimit="10" stroke-linecap="round"/>
<path d="M536.014 326.391C536.014 326.391 537.045 341.045 536.295 341.234C535.544 341.423 493.648 343.2 502.531 338.296C511.415 333.393 522.184 331.743 522.184 331.743L520.91 321.411L536.014 326.391Z" fill="#3A323F"/>
<path d="M533.731 330.372C534.57 330.255 535.406 330.122 536.241 329.992C536.121 327.919 536.013 326.391 536.013 326.391L520.909 321.411L522.044 330.612C525.887 331.34 529.853 330.911 533.731 330.372Z" fill="#201A23"/>
<path d="M516.039 340.333C515.704 338.062 515.077 335.837 514.073 333.627C509.925 334.669 506.151 336.211 502.196 338.38C501.087 338.989 500.766 339.492 501.045 339.909C501.048 339.912 501.049 339.916 501.052 339.921C501.083 339.966 501.124 340.009 501.169 340.051C501.176 340.058 501.182 340.065 501.189 340.072C501.234 340.113 501.287 340.151 501.345 340.19C501.358 340.199 501.369 340.208 501.382 340.215C501.44 340.253 501.505 340.288 501.574 340.323C501.591 340.332 501.609 340.342 501.627 340.35C501.697 340.385 501.773 340.418 501.853 340.45C501.875 340.46 501.897 340.469 501.92 340.477C502.002 340.509 502.09 340.54 502.181 340.571C502.207 340.58 502.234 340.589 502.261 340.597C502.355 340.628 502.453 340.657 502.555 340.685C502.586 340.694 502.618 340.703 502.649 340.711C502.753 340.738 502.862 340.766 502.975 340.793C503.009 340.8 503.044 340.808 503.078 340.816C503.195 340.842 503.314 340.868 503.438 340.893C503.474 340.9 503.51 340.907 503.546 340.914C503.675 340.939 503.807 340.964 503.944 340.987C503.978 340.993 504.013 340.998 504.048 341.004C504.191 341.028 504.336 341.052 504.487 341.074C504.518 341.079 504.55 341.083 504.58 341.087C504.74 341.111 504.902 341.134 505.07 341.155C505.087 341.158 505.105 341.16 505.122 341.162C506.259 341.308 507.58 341.422 509.024 341.509C509.067 341.511 509.109 341.514 509.152 341.517C509.333 341.527 509.518 341.537 509.702 341.547C509.783 341.551 509.862 341.555 509.943 341.56C510.109 341.568 510.277 341.575 510.445 341.583C510.551 341.587 510.655 341.593 510.761 341.597C510.913 341.604 511.067 341.61 511.22 341.616C511.345 341.621 511.47 341.625 511.597 341.631C511.746 341.636 511.896 341.641 512.046 341.646C512.177 341.651 512.307 341.655 512.44 341.659C512.586 341.663 512.733 341.668 512.881 341.672C513.025 341.676 513.17 341.68 513.315 341.683C513.452 341.687 513.59 341.69 513.729 341.693C513.884 341.696 514.041 341.7 514.197 341.703C514.328 341.706 514.46 341.708 514.592 341.71C514.76 341.714 514.929 341.716 515.098 341.719C515.223 341.721 515.346 341.722 515.471 341.724C515.647 341.727 515.824 341.728 516.002 341.73C516.073 341.731 516.143 341.732 516.213 341.733V341.732C525.603 341.824 535.971 341.834 536.343 341.74C536.479 341.706 536.675 340.984 536.541 339.905C533.402 340.09 524.277 340.441 516.039 340.333Z" fill="#FDEDEE"/>
<path d="M515.942 333.076C515.942 333.076 517.069 334.584 517.3 336.093" stroke="#FDEDEE" stroke-width="0.8966" stroke-miterlimit="10" stroke-linecap="round"/>
<path d="M520.154 332.014C520.154 332.014 521.281 333.522 521.512 335.031" stroke="#FDEDEE" stroke-width="0.8966" stroke-miterlimit="10" stroke-linecap="round"/>
<path d="M518.066 332.616C518.066 332.616 519.193 334.123 519.424 335.633" stroke="#FDEDEE" stroke-width="0.8966" stroke-miterlimit="10" stroke-linecap="round"/>
<path d="M521.856 159.884C521.856 159.884 519.235 258.801 519.347 325.432C519.347 325.432 529.67 329.48 538.455 325.696L546.625 198.964L551.79 199.036L562.603 327.461C562.603 327.461 574.381 326.114 578.152 323.544C581.923 320.973 576.546 164.255 576.546 164.255L521.856 159.884Z" fill="#F19C7C"/>
<path opacity="0.2" d="M561.906 177.713C548.41 177.97 534.907 178.198 521.403 178.335C521.672 166.852 521.856 159.884 521.856 159.884L576.546 164.255C576.546 164.255 576.717 169.23 576.975 177.418C571.953 177.517 566.929 177.618 561.906 177.713Z" fill="#352C38"/>
<path d="M518.263 327.547C518.263 327.547 529.14 332.057 539.345 328.729L539.856 323.889C539.856 323.889 529.287 325.725 518.521 322.382L518.263 327.547Z" fill="#FCAB92"/>
<path d="M581.105 325.361C581.105 325.361 571.719 330.281 561.228 328.006L560.24 323.306C560.24 323.306 570.51 323.692 580.899 319.366L581.105 325.361Z" fill="#FCAB92"/>
<path d="M520.927 111.648C520.927 111.648 517.998 157.673 518.974 170.365C518.974 170.365 543.8 178.036 579.226 172.736L579.365 102.582L569.184 97.2819L520.927 111.648Z" fill="#6F96BD"/>
<path opacity="0.2" d="M522.861 121.101C525.368 124.046 528.17 126.727 531.251 129.069C539.181 135.1 548.398 139.094 557.768 142.323C564.884 144.776 572.086 146.991 579.273 149.245L579.227 172.737C543.801 178.037 518.975 170.366 518.975 170.366C518.225 160.613 519.78 131.183 520.54 118.072C521.274 119.11 522.034 120.13 522.861 121.101Z" fill="#352C38"/>
<path d="M588.229 148.426C588.229 148.426 579.045 155.213 575.852 136.048C572.659 116.883 582.64 105.704 582.64 105.704L587.031 130.858L588.229 148.426Z" fill="#8E4644"/>
<path d="M522.042 134.8L525.529 109.138L513.953 95.8884C513.953 95.8884 505.166 143.309 508.654 150.003C512.14 156.698 522.042 134.8 522.042 134.8Z" fill="#965450"/>
<path d="M509.957 120.712C511.724 107.916 513.953 95.8874 513.953 95.8874L525.529 109.137L523.453 124.417C519.054 122.699 514.541 121.537 509.957 120.712Z" fill="#8E4644"/>
<path d="M537.802 83.6135C537.802 83.6135 516.218 89.5483 513.394 94.632C510.571 99.715 508.374 118.342 508.374 118.342L524.274 121.829L552.029 127.264L586.033 118.082C586.033 118.082 584.557 103.949 581.243 97.32C576.651 88.1365 560.68 85.9411 560.68 85.9411C560.68 85.9411 552.865 99.9318 537.802 83.6135Z" fill="#6F96BD"/>
<path d="M576.251 123.272C576.251 123.272 580.51 112.359 590.359 109.165L592.488 112.891L576.251 123.272Z" fill="#FDEDEE"/>
<path d="M576.251 124.869C576.251 124.869 578.913 112.093 564.54 101.978L559.749 110.495L576.251 124.869Z" fill="white"/>
<path d="M555.755 108.1L558.151 105.172C558.151 105.172 575.719 113.157 576.251 123.272L555.755 108.1Z" fill="#FDEDEE"/>
<path d="M594.663 108.739L577.209 120.305L556.109 106.064L544.787 125.607L565.128 139.128L566.775 139.096L587.7 125.206L594.663 108.739Z" fill="#FC6A5A"/>
<path opacity="0.2" d="M594.663 108.739L577.209 120.305L566.775 139.096L587.7 125.206L594.663 108.739Z" fill="#352C38"/>
<path d="M578.352 119.65L576.001 119.559L565.128 139.128L566.775 139.096L578.352 119.65Z" fill="#FF847B"/>
<path d="M510.607 140.821C510.607 140.821 541.237 114.417 543.772 113.783C546.307 113.149 568.276 112.938 549.897 115.684C549.897 115.684 573.134 116.529 550.109 118.008C550.109 118.008 569.121 119.486 550.109 119.908C550.109 119.908 567.853 122.866 545.039 122.232C545.039 122.232 527.718 152.439 516.31 153.495C504.904 154.552 506.382 144.835 510.607 140.821Z" fill="#965450"/>
<path d="M594.172 107.259C594.172 107.259 596.707 108.104 597.13 110.639C597.552 113.174 596.496 116.343 593.961 120.779C591.426 125.215 597.341 145.494 592.271 149.508C587.201 153.521 580.865 151.409 579.597 146.128C578.33 140.847 586.867 124.522 586.417 119.892C586.096 116.594 587.836 115.076 587.836 115.076L588.681 112.541C588.681 112.541 584.082 109.449 588.158 109.998C588.158 109.998 586.188 107.799 589.948 108.949C589.948 108.949 587.202 107.049 592.483 108.104C592.483 108.104 589.947 106.414 594.172 107.259Z" fill="#965450"/>
<path opacity="0.15" d="M304.359 352.214C395.499 352.214 469.383 346.553 469.383 339.57C469.383 332.587 395.499 326.926 304.359 326.926C213.219 326.926 139.335 332.587 139.335 339.57C139.335 346.553 213.219 352.214 304.359 352.214Z" fill="#352C38"/>
<path d="M211.833 318.809C211.833 318.809 211.611 333.756 212.385 333.906C213.16 334.057 255.831 333.5 246.527 329.018C237.225 324.536 226.189 323.467 226.189 323.467L226.901 312.897L211.833 318.809Z" fill="#3A323F"/>
<path d="M168.93 319.955C168.93 319.955 167.409 334.827 168.167 335.044C168.924 335.26 211.482 338.415 202.604 333.142C193.726 327.869 182.825 325.844 182.825 325.844L184.453 315.376L168.93 319.955Z" fill="#3A323F"/>
<path d="M169.198 150.241C169.198 150.241 166.529 250.905 166.644 318.715C166.644 318.715 177.15 322.833 186.089 318.983L194.404 190.012L199.66 190.085L210.663 320.78C210.663 320.78 222.65 319.409 226.488 316.793C230.325 314.177 224.853 154.69 224.853 154.69L169.198 150.241Z" fill="#997E8C"/>
<path opacity="0.2" d="M209.955 168.386C196.22 168.647 182.479 168.879 168.736 169.017C169.01 157.332 169.198 150.24 169.198 150.24L224.855 154.689C224.855 154.689 225.028 159.752 225.292 168.084C220.179 168.186 215.066 168.289 209.955 168.386Z" fill="#352C38"/>
<path d="M165.54 320.867C165.54 320.867 176.61 325.457 186.994 322.071L187.515 317.145C187.515 317.145 176.759 319.014 165.804 315.61L165.54 320.867Z" fill="#AF95A4"/>
<path d="M229.493 318.642C229.493 318.642 219.941 323.65 209.265 321.334L208.26 316.551C208.26 316.551 218.711 316.944 229.284 312.542L229.493 318.642Z" fill="#AF95A4"/>
<path d="M171.249 45.3694L176.154 68.763L183.504 67.334L171.249 45.3694Z" fill="#D8866C"/>
<path d="M179.421 56.5132L172.684 57.9423L174.317 67.3331C174.317 67.3331 193.629 67.6355 194.037 67.0229C194.446 66.4104 185.341 59.9831 185.341 59.9831L179.421 56.5132Z" fill="#352C38"/>
<path d="M151.086 73.5669C151.086 73.5669 166.434 60.5827 192.057 62.105C217.68 63.6274 223.001 65.9205 223.43 94.2329C223.858 122.544 225.804 163.333 225.804 163.333L172.577 167.885L151.086 73.5669Z" fill="#352C38"/>
<path opacity="0.7" d="M223.928 115.245C221.394 114.913 218.861 114.578 216.331 114.218C197.109 111.488 177.808 108.705 159.591 102.078L172.576 167.885L225.803 163.333C225.803 163.333 224.654 139.247 223.928 115.245Z" fill="#28202B"/>
<path d="M225.942 85.6594C225.942 85.6594 220.312 76.7637 231.283 61.6497L234.977 66.7931L225.942 85.6594Z" fill="white"/>
<path d="M226.088 83.4286C226.088 83.4286 225.935 70.5515 234.658 63.2412L238.363 66.1624L226.088 83.4286Z" fill="#FDEDEE"/>
<path d="M226.746 85.0563C226.746 85.0563 226.747 74.1967 204.483 70.6051L204.007 77.2017L226.746 85.0563Z" fill="white"/>
<path d="M198.951 76.4034L200.187 72.4324C200.187 72.4324 221.381 73.3379 226.088 83.4277L198.951 76.4034Z" fill="#FDEDEE"/>
<path d="M237.64 64.907L225.843 80.0089L198.472 74.1829L194.156 103.844L218.817 109.012L222.08 107.111L232.865 107.255L237.64 64.907Z" fill="#765E69"/>
<path opacity="0.6" d="M237.64 64.907L225.843 80.0089L218.817 109.012L222.08 107.111L231.223 107.039L237.64 64.907Z" fill="#433947"/>
<path d="M226.738 78.8718L224.304 79.7479L218.817 109.012L221.967 108.047L226.738 78.8718Z" fill="#8E687B"/>
<path d="M238.803 70.9006C239.914 72.0195 238.726 128.657 235.212 134.836C231.698 141.014 224.27 140.33 220.803 135.47C217.337 130.609 231.779 76.0059 231.779 76.0059C231.779 76.0059 220.78 72.3339 232.843 74.5164C232.843 74.5164 220.234 68.3112 234.283 72.7357C234.283 72.7357 222.526 66.819 235.476 70.8366C235.474 70.8358 225.433 60.511 238.803 70.9006Z" fill="#FFAC9D"/>
<path d="M223.223 107.09C219.482 120.444 216.525 133.431 218.428 135.662C222.558 140.502 231.609 141.04 236.024 134.724C238.198 131.616 239.041 120.015 239.46 108.361C234.026 108.149 228.611 107.741 223.223 107.09Z" fill="#352C38"/>
<path d="M175.7 38.1429C176.455 41.9367 175.041 45.4152 172.541 45.9128C170.042 46.4105 167.403 43.7381 166.649 39.9443C165.894 36.1505 167.308 32.672 169.808 32.1744C172.307 31.6767 174.946 34.349 175.7 38.1429Z" fill="#FFAC9D"/>
<path d="M173.25 54.4241C173.25 54.4241 184.468 64.6729 192.589 62.6762C202.129 60.3304 204.196 50.1507 203.488 36.5713C202.385 15.4266 195.563 14.2334 185.202 15.3056C161.735 17.7335 173.25 54.4241 173.25 54.4241Z" fill="#FFAC9D"/>
<path d="M177.68 19.401C177.68 19.401 179.883 31.9938 174.013 34.8251L174.067 42.7307L171.591 43.3684L170.959 35.0178C170.959 35.0178 167.664 34.1555 167.348 37.399C166.625 44.8449 171.248 45.3702 171.248 45.3702L173.248 54.425C173.248 54.425 160.079 44.0414 161.942 20.6443C162.907 8.55433 177.68 19.401 177.68 19.401Z" fill="#76413B"/>
<path d="M176.645 21.0581C176.645 21.0581 202.32 24.9919 205.426 15.2607L200.871 16.917C200.871 16.917 205.633 12.1546 203.562 4.49353C203.562 4.49353 200.664 10.291 196.73 11.326C196.73 11.326 203.356 9.04854 198.386 0.766235C198.386 0.766235 198.386 3.04374 193.21 5.94246C188.034 8.84118 159.874 -2.33985 161.944 25.6123L176.645 21.0581Z" fill="#76413B"/>
<path d="M194.12 48.5515C195.462 47.837 196.855 47.3021 198.256 46.7924L197.882 47.5052C197.502 46.5479 197.138 45.5854 196.801 44.6134C196.623 44.1313 196.469 43.6405 196.309 43.1515C196.151 42.6625 195.985 42.1752 195.845 41.6792C195.256 39.7067 194.731 37.7117 194.419 35.6442C195.436 37.4707 196.242 39.3698 196.983 41.2904C197.176 41.7682 197.342 42.2547 197.516 42.7385C197.689 43.2232 197.867 43.7053 198.021 44.1969C198.349 45.1715 198.65 46.1565 198.934 47.1458L199.106 47.7445L198.561 47.8594C197.102 48.1679 195.637 48.4495 194.12 48.5515Z" fill="#D8866C"/>
<path d="M182.338 37.1242C182.338 37.1242 182.382 37.297 182.481 37.5847C182.578 37.8716 182.725 38.2777 182.952 38.7166C183.18 39.152 183.497 39.6281 183.936 39.9512C184.365 40.283 184.916 40.4247 185.51 40.4031L185.721 40.3876L185.978 40.3564C186.114 40.3348 186.251 40.3107 186.395 40.2718C186.674 40.1932 186.928 40.0834 187.156 39.9435C187.603 39.6566 187.931 39.2315 188.144 38.8012C188.358 38.371 188.476 37.9597 188.552 37.6668C188.625 37.3731 188.654 37.1942 188.654 37.1942C188.654 37.1942 188.723 37.3618 188.777 37.6746C188.828 37.9856 188.868 38.4479 188.751 39.006C188.644 39.5564 188.332 40.232 187.722 40.7176C187.427 40.9664 187.065 41.1453 186.69 41.2611C186.506 41.3189 186.307 41.3639 186.102 41.401L185.845 41.4304C185.722 41.4416 185.641 41.439 185.537 41.4442C185.143 41.4468 184.731 41.3984 184.349 41.2576C183.968 41.1142 183.62 40.8939 183.346 40.6303C182.804 40.0869 182.546 39.4484 182.418 38.9153C182.289 38.377 182.278 37.9243 182.289 37.6124C182.302 37.2988 182.338 37.1242 182.338 37.1242Z" fill="#211B23"/>
<path d="M195.791 36.795C195.791 36.795 195.837 36.967 195.94 37.2538C196.04 37.5398 196.192 37.9433 196.425 38.3805C196.658 38.8133 196.98 39.286 197.422 39.603C197.855 39.9305 198.408 40.0653 199.001 40.0368L199.212 40.0186L199.469 39.9841C199.604 39.9607 199.742 39.9357 199.884 39.8951C200.161 39.813 200.416 39.6998 200.64 39.5581C201.084 39.2661 201.407 38.8375 201.616 38.4047C201.824 37.9718 201.938 37.5597 202.01 37.2659C202.08 36.9713 202.107 36.7924 202.107 36.7924C202.107 36.7924 202.179 36.9592 202.235 37.2711C202.291 37.5813 202.335 38.0435 202.225 38.6025C202.124 39.1546 201.82 39.8337 201.216 40.3262C200.924 40.5785 200.564 40.7617 200.19 40.8818C200.007 40.9422 199.808 40.9889 199.604 41.0286L199.347 41.0606C199.224 41.0736 199.143 41.0718 199.039 41.0779C198.644 41.0848 198.233 41.0416 197.848 40.9051C197.465 40.766 197.115 40.55 196.838 40.2891C196.288 39.7525 196.024 39.1157 195.889 38.5844C195.753 38.0478 195.739 37.596 195.746 37.2832C195.757 36.9696 195.791 36.795 195.791 36.795Z" fill="#211B23"/>
<path d="M189.876 31.0728C189.876 31.0728 189.659 31.0503 189.308 31.0062C188.971 30.9596 188.491 30.8922 187.913 30.811C187.631 30.7825 187.341 30.7194 187.03 30.6874C186.724 30.6425 186.406 30.5976 186.081 30.5639C185.758 30.5103 185.428 30.5051 185.099 30.4593C184.771 30.4429 184.441 30.4161 184.116 30.4101C183.796 30.423 183.465 30.3867 183.156 30.4282C183 30.4429 182.843 30.4507 182.686 30.4524C182.531 30.4619 182.386 30.5051 182.234 30.5181C182.081 30.5362 181.929 30.5544 181.782 30.5725C181.64 30.6079 181.5 30.6477 181.358 30.6762C181.071 30.728 180.792 30.7885 180.547 30.8853C180.297 30.9717 180.035 31.0209 179.819 31.1004C179.616 31.1954 179.416 31.2628 179.252 31.3251C178.922 31.4469 178.702 31.5065 178.702 31.5065C178.702 31.5065 178.763 31.3069 178.921 30.9743C179.001 30.8092 179.099 30.601 179.235 30.3798C179.375 30.1612 179.569 29.9452 179.787 29.7033C179.898 29.5858 180.013 29.458 180.144 29.3404C180.287 29.2376 180.435 29.1305 180.586 29.0216C180.741 28.9119 180.906 28.8091 181.075 28.6994C181.251 28.6078 181.441 28.5369 181.633 28.4531C182.016 28.276 182.431 28.1654 182.863 28.0946C183.294 27.9831 183.733 28.0107 184.172 27.9866C185.044 28.022 185.897 28.1931 186.627 28.4903C187.368 28.7633 187.985 29.1633 188.48 29.5323C188.965 29.9254 189.324 30.2969 189.548 30.5915C189.779 30.8775 189.876 31.0728 189.876 31.0728Z" fill="#76413B"/>
<path d="M202.519 29.9323C202.519 29.9323 202.365 29.8692 202.094 29.7578C201.847 29.6523 201.495 29.502 201.071 29.3223C200.862 29.248 200.658 29.1409 200.431 29.0631C200.211 28.9715 199.982 28.8868 199.749 28.8099C199.522 28.7115 199.28 28.6778 199.053 28.5879C198.817 28.562 198.59 28.4548 198.359 28.4531L198.018 28.3978L197.679 28.3883C197.451 28.3572 197.231 28.4021 197.003 28.4047C196.772 28.3935 196.559 28.4834 196.332 28.5006C196.102 28.5127 195.901 28.6078 195.692 28.6518C195.489 28.7089 195.274 28.7322 195.108 28.8056C194.939 28.8722 194.774 28.9154 194.64 28.9568C194.368 29.0372 194.188 29.0717 194.188 29.0717C194.188 29.0717 194.236 28.9093 194.363 28.6449C194.495 28.3831 194.674 27.9866 195.043 27.6263C195.226 27.4466 195.408 27.2185 195.674 27.0681C195.937 26.9178 196.197 26.7018 196.531 26.6085C196.858 26.5022 197.201 26.3674 197.571 26.3605C197.754 26.3467 197.942 26.3216 198.128 26.3251L198.682 26.3856C199.057 26.4227 199.393 26.5661 199.733 26.6776C200.045 26.8348 200.367 26.9748 200.622 27.177C201.167 27.5399 201.554 27.9987 201.851 28.3995C202.129 28.8212 202.309 29.1962 202.401 29.4787C202.499 29.7569 202.519 29.9323 202.519 29.9323Z" fill="#76413B"/>
<path d="M193.508 49.9805C194.297 50.8195 195.011 51.7068 195.71 52.6045L196.154 53.1748L195.368 53.2724C194.707 53.3545 194.046 53.4435 193.384 53.5048C192.722 53.5618 192.061 53.6396 191.397 53.6733C190.734 53.7113 190.072 53.7726 189.407 53.7882C188.743 53.8072 188.08 53.8513 187.415 53.8487L187.581 52.6779C188.555 53.0529 189.522 53.4512 190.479 53.8806C191.435 54.3083 192.381 54.7662 193.305 55.289C192.255 55.1308 191.228 54.9088 190.211 54.6556C189.194 54.4042 188.186 54.1217 187.188 53.8167L184.398 52.9631L187.353 52.646C188.015 52.5751 188.678 52.5509 189.341 52.5026C190.003 52.4507 190.668 52.4429 191.332 52.4136C191.996 52.3799 192.661 52.3894 193.326 52.3781C193.992 52.3721 194.658 52.3928 195.324 52.4067L194.982 53.0745C194.454 52.0654 193.943 51.0467 193.508 49.9805Z" fill="#D8866C"/>
<path d="M437.368 280.313C437.368 280.313 436.398 330.362 441.336 336.169C441.336 336.169 474.738 346.832 448.555 333.252L456.754 281.346L437.368 280.313Z" fill="#FFAC9D"/>
<path d="M451.158 334.447C451.158 334.447 461.098 339.501 458.953 340.608C456.808 341.714 440.118 336.5 440.118 336.5L439.532 332.804C439.532 332.804 455.048 338.815 451.158 334.447Z" fill="#352C38"/>
<path d="M438.272 195.383C438.272 195.383 433.843 290.041 439.933 331.004L448.555 333.252C448.555 333.252 467.057 289.487 457.646 266.792C457.646 266.792 476.468 219.186 472.039 184.312C467.61 149.438 438.272 195.383 438.272 195.383Z" fill="#FFA292"/>
<path d="M418.027 282.552C418.027 282.552 409.417 331.915 403.281 336.707C403.281 336.707 367.264 340.996 396.498 332.503L398.111 279.977L418.027 282.552Z" fill="#FFAC9D"/>
<path d="M393.621 333.195C393.621 333.195 382.542 336.319 384.511 337.805C386.48 339.29 404.455 337.257 404.455 337.257L405.76 333.734C405.76 333.734 388.827 336.766 393.621 333.195Z" fill="#352C38"/>
<path d="M433.391 198.925C433.391 198.925 419.745 292.765 405.698 331.892L396.499 332.503C396.499 332.503 386.071 286.069 399.994 265.51C399.994 265.51 389.98 215.241 401.17 181.792C412.36 148.34 433.391 198.925 433.391 198.925Z" fill="#FFA292"/>
<path d="M432.83 219.876C446.45 219.84 461.227 218.967 473.04 211.961C474.217 200.865 475.023 191.161 475.132 184.662C475.609 156.175 453.193 142.914 453.193 142.914L414.084 146.844C405.04 155.167 398.015 181.561 392.852 210.088C397.528 212.397 402.339 214.425 407.315 216.019C414.83 218.426 423.213 219.253 432.273 219.677L433.162 206.764L432.83 219.876Z" fill="#FFA65B"/>
<path opacity="0.2" d="M407.314 216.018C414.829 218.425 425.335 219.535 432.272 219.676L433.162 206.763C433.162 206.763 408.766 196.348 396.981 189.758C395.491 196.251 394.117 203.106 392.853 210.087C397.528 212.397 402.339 214.425 407.314 216.018Z" fill="#352C38"/>
<path opacity="0.2" d="M409.766 152.401C411.151 150.105 412.589 148.219 414.084 146.843L453.193 142.913C453.193 142.913 454.135 143.473 455.624 144.601C451.13 148.044 438.761 154.334 409.766 152.401Z" fill="#352C38"/>
<path d="M457.653 56.4208C457.653 56.4208 452.43 44.0967 436.888 39.9028C410.732 32.8448 398.763 98.5728 407.411 101.14C420.696 105.084 431.491 99.8938 431.491 99.8938L431.826 80.6664C435.743 81.4872 439.718 82.0229 443.716 82.3097L457.653 56.4208Z" fill="#FDDEC0"/>
<path d="M456.2 57.0437C456.2 57.0437 455.526 55.5222 453.82 53.1972C452.955 52.0481 451.852 50.6847 450.414 49.2911C448.97 47.9052 447.227 46.4641 445.171 45.1154C443.091 43.8038 440.698 42.6193 438.054 41.6637C436.694 41.2723 435.356 40.7694 433.891 40.5422C432.476 40.315 430.962 40.2787 429.478 40.5223C426.488 40.9889 423.646 42.5519 421.255 44.6574C418.849 46.7673 416.818 49.368 415.085 52.1371C413.33 54.8993 411.848 57.836 410.576 60.8056C409.302 63.776 408.233 66.7793 407.338 69.7281C405.553 75.6267 404.367 81.2833 403.792 86.1839C403.22 91.0784 403.164 95.2325 403.741 98.0552C404.039 99.4541 404.471 100.531 405.002 101.097C405.52 101.676 405.976 101.743 405.959 101.764C405.976 101.742 405.518 101.695 404.969 101.127C404.411 100.572 403.919 99.4981 403.584 98.0898C402.935 95.2541 402.826 91.0681 403.328 86.132C403.838 81.196 404.877 75.4729 406.649 69.5199C407.534 66.5443 408.594 63.5099 409.863 60.5015C411.132 57.4947 412.612 54.5114 414.384 51.693C416.164 48.8859 418.251 46.2377 420.748 44.0725C423.226 41.9134 426.21 40.2839 429.367 39.8104C430.939 39.5685 432.508 39.5961 434.024 39.8761C435.503 40.1318 436.901 40.6761 438.257 41.0943C440.931 42.1121 443.341 43.358 445.427 44.7248C447.495 46.1202 449.217 47.6331 450.632 49.0733C452.043 50.5205 453.115 51.9237 453.95 53.103C454.784 54.2876 455.324 55.2916 455.689 55.9724C456.045 56.661 456.2 57.0437 456.2 57.0437Z" fill="#FDDEC0"/>
<path d="M447.966 46.274C447.966 46.274 457.179 45.7202 460.75 53.0728C464.22 60.2163 462.443 73.8753 460.995 85.0209C459.997 85.1116 458.982 85.1911 457.96 85.2542L458.269 83.3309L457.367 85.2879C451.087 85.6318 444.574 85.2309 439.664 81.9364L450.525 55.924L447.966 46.274Z" fill="#FDDEC0"/>
<path d="M451.801 96.7454C451.801 96.7454 446.399 96.7454 444.434 95.0261C442.469 93.3067 444.568 78.7206 444.568 78.7206L427.489 85.9394L428.169 97.4029L415.507 98.6488C414.524 100.122 414.719 117.128 431.173 115.9C447.627 114.673 451.801 96.7454 451.801 96.7454Z" fill="#FFA292"/>
<path opacity="0.6" d="M429.357 95.4727C434.644 94.0376 439.359 91.3739 443.655 88.0553C443.866 83.6057 444.568 78.7215 444.568 78.7215L427.489 85.9402L427.971 95.8071C428.435 95.706 428.897 95.5972 429.357 95.4727Z" fill="#D8866C"/>
<path d="M450.88 73.1625C450.88 73.1625 460.36 62.2217 447.682 54.2262C432.921 44.9175 423.533 50.5793 419.493 60.2112C415.453 69.843 412.324 82.8886 421.894 88.1011C431.907 93.5555 443.963 89.3703 450.88 73.1625Z" fill="#FFA292"/>
<path d="M395.685 38.5135L413.737 41.3077L407.689 53.5679L395.685 38.5135Z" fill="#E05B51"/>
<path d="M395.685 38.5135L414.875 43.7908L411.517 50.0281L395.685 38.5135Z" fill="#FDDEC0"/>
<path d="M395.685 38.5135L382.97 65.8272L402.43 74.2564L415.77 45.5785L395.685 38.5135Z" fill="#FC6A5A"/>
<path d="M410.832 114.785L414.107 96.5951L384.1 88.3162L394.445 58.9515C394.445 58.9515 406.486 54.7999 395.465 56.2756C395.465 56.2756 401.465 41.255 393.672 55.1861C393.672 55.1861 400.886 37.3376 391.728 53.9031C391.728 53.9031 396.307 39.0622 390.045 53.3519C390.045 53.3519 393.947 41.6948 386.945 55.5283C379.781 69.678 364.059 90.6343 370.555 97.7105C377.053 104.785 410.832 114.785 410.832 114.785Z" fill="#FFA292"/>
<path d="M411.037 116.956L379.595 103.493L386.792 87.4401L418.62 96.5735L411.037 116.956Z" fill="#765E69"/>
<path d="M410.732 100.102L418.621 96.5735L428.308 109.582L450.819 95.5177C450.819 95.5177 461.502 99.8765 463.528 108.533C465.554 117.189 454.749 143.159 454.749 143.159C436.576 151.264 415.211 146.843 415.211 146.843C401.827 126.215 410.732 100.102 410.732 100.102Z" fill="#765E69"/>
<path opacity="0.3" d="M431.84 130.135C440.436 132.057 449.267 133.65 458.128 134.297C456.306 139.414 454.749 143.159 454.749 143.159C436.576 151.264 415.211 146.843 415.211 146.843C407.705 135.274 407.19 122.836 408.185 114.143C413.679 122.601 421.419 127.804 431.84 130.135Z" fill="#352C38"/>
<path d="M455.156 116.502L464.843 104.324C464.843 104.324 496.949 121.761 493.35 132.002C489.753 142.243 467.334 159.126 465.396 156.081C463.459 153.037 462.628 152.76 462.628 152.76C462.628 152.76 453.218 162.725 461.798 150.269C461.798 150.269 449.62 159.957 461.521 149.163C461.521 149.163 448.236 153.868 461.245 146.948C461.245 146.948 464.566 145.564 467.611 149.439L477.575 130.895L455.156 116.502Z" fill="#FFA292"/>
<path d="M450.819 95.5177C450.819 95.5177 462.628 97.4038 491.966 123.974L477.574 130.894L451.833 118.439L450.819 95.5177Z" fill="#765E69"/>
<path d="M440.886 83.4242C443.044 80.7674 446.221 76.26 444.9 71.0051C439.806 50.7478 449.945 50.5948 449.945 50.5948C459.4 49.9779 456.223 72.1802 453.972 85.2274C446.309 85.6145 445.086 83.7698 440.886 83.4242Z" fill="#FDDEC0"/>
<path d="M444.9 71.0051C444.9 71.0051 446.23 78.5141 438.549 86.1942C430.868 93.8752 438.964 104.254 446.23 101.764C453.495 99.2726 458.062 97.1964 465.327 102.386C465.327 102.386 469.895 98.2349 464.912 91.1769C459.93 84.1189 462.421 73.5323 462.421 73.5323L444.9 71.0051Z" fill="#FDDEC0"/>
<path d="M466.158 102.386C466.527 101.999 466.822 101.55 467.076 101.085C467.324 100.616 467.526 100.125 467.665 99.6156C467.807 99.1084 467.89 98.5857 467.915 98.0613C467.949 97.8004 467.916 97.5368 467.911 97.275C467.912 97.0124 467.877 96.7523 467.828 96.494C467.771 95.9721 467.603 95.4719 467.463 94.9682C467.266 94.4826 467.103 93.9823 466.856 93.5192C466.604 93.0579 466.387 92.5792 466.076 92.1515L465.202 90.8071C464.933 90.3423 464.596 89.9354 464.381 89.4221C464.153 88.9245 463.886 88.4363 463.693 87.9274L463.154 86.3886L462.757 84.8093C462.657 84.2762 462.58 83.7396 462.491 83.2048C462.417 82.6683 462.384 82.1274 462.329 81.5882C462.256 80.5083 462.246 79.4257 462.278 78.3457V78.3327L462.28 78.318C462.486 76.6306 462.665 74.9579 462.805 73.2722C462.935 71.5883 463.065 69.9044 463.14 68.2187C463.227 66.5331 463.244 64.8474 463.224 63.1626C463.18 62.3236 463.186 61.4787 463.101 60.644L462.997 59.3895L462.828 58.1462C462.778 57.7298 462.71 57.3176 462.609 56.915C462.513 56.5115 462.452 56.0951 462.335 55.6994L461.954 54.5226C461.803 54.1433 461.598 53.7942 461.423 53.4253C461.008 52.7497 460.487 52.0118 459.939 51.4303C459.679 51.1124 459.382 50.8221 459.069 50.5447C458.771 50.2536 458.459 49.9788 458.119 49.7352C457.793 49.4751 457.459 49.2245 457.1 49.0111C456.751 48.7804 456.397 48.5575 456.024 48.3675C455.661 48.1575 455.284 47.9726 454.899 47.8067C454.521 47.6218 454.126 47.4793 453.733 47.3307C452.943 47.0404 452.131 46.8062 451.305 46.6343C450.48 46.4572 449.642 46.3206 448.796 46.2766C450.492 46.2783 452.191 46.5669 453.816 47.0827C454.222 47.2157 454.63 47.3427 455.023 47.513C455.424 47.665 455.817 47.8361 456.198 48.0331C456.588 48.2111 456.963 48.4202 457.327 48.65C457.703 48.8608 458.053 49.1088 458.398 49.3671C458.755 49.609 459.087 49.8838 459.404 50.1767C459.734 50.454 460.051 50.7478 460.338 51.0787C460.963 51.7189 461.445 52.3626 461.936 53.1099C462.138 53.4996 462.373 53.8806 462.545 54.2824L462.981 55.5127C463.199 56.3456 463.431 57.1854 463.533 58.0365L463.719 59.31L463.836 60.5879C463.929 61.4398 463.932 62.2925 463.984 63.1453C464.021 64.85 464.019 66.5547 463.946 68.255C463.834 71.6557 463.469 75.0478 463.036 78.4079L463.039 78.3811C462.998 79.4352 462.998 80.491 463.059 81.5433C463.108 82.0669 463.135 82.5948 463.202 83.1158L463.447 84.6736L463.794 86.2107L464.273 87.7097C464.445 88.203 464.682 88.6618 464.883 89.1422C465.064 89.6261 465.404 90.0667 465.657 90.5315C465.926 90.9929 466.198 91.4258 466.492 91.8975C466.798 92.3459 467.013 92.8488 467.258 93.3326C467.499 93.8182 467.662 94.3435 467.838 94.855C467.961 95.3863 468.11 95.9108 468.146 96.4568C468.184 96.7264 468.207 96.9968 468.195 97.2699C468.188 97.542 468.21 97.8142 468.163 98.0829C468.113 98.6237 468.003 99.1577 467.834 99.6709C467.496 100.692 466.931 101.647 466.158 102.386Z" fill="#FDDEC0"/>
<path d="M430.103 61.0017C430.103 61.0017 429.603 60.4522 428.848 59.8224C428.667 59.6573 428.44 59.5148 428.232 59.3437C427.998 59.2003 427.783 59.0188 427.525 58.8867C427.402 58.8141 427.277 58.7406 427.15 58.6655C427.015 58.6059 426.881 58.5436 426.75 58.4754C426.492 58.3285 426.193 58.2577 425.92 58.1332C425.629 58.0486 425.338 57.9639 425.051 57.881C424.752 57.8369 424.464 57.7488 424.171 57.7064C423.877 57.6762 423.59 57.6339 423.314 57.5881C423.036 57.5716 422.768 57.5509 422.516 57.525C422.012 57.4576 421.581 57.4852 421.268 57.4429C420.955 57.4153 420.767 57.385 420.767 57.385C420.767 57.385 420.915 57.2796 421.191 57.1189C421.329 57.0412 421.498 56.9418 421.699 56.8476C421.897 56.7387 422.128 56.6411 422.393 56.5729C422.654 56.4916 422.942 56.3992 423.253 56.3301C423.569 56.2886 423.906 56.2515 424.257 56.2255C424.609 56.2108 424.979 56.2532 425.353 56.286C425.725 56.3413 426.099 56.4493 426.47 56.553C426.822 56.7146 427.199 56.826 427.516 57.0463C427.849 57.2356 428.152 57.4567 428.417 57.7038C428.699 57.9285 428.91 58.2127 429.122 58.4564C429.311 58.7242 429.484 58.9765 429.605 59.2323C429.873 59.7239 429.992 60.1809 430.054 60.4954C430.111 60.8151 430.103 61.0017 430.103 61.0017Z" fill="#352C38"/>
<path d="M430.6 63.0572C430.224 63.8149 429.799 64.5329 429.357 65.2371C428.918 65.9447 428.451 66.6307 427.973 67.3072C427.496 67.9846 427.002 68.6481 426.491 69.2987C425.995 69.9605 425.453 70.5861 424.931 71.228L424.999 70.5429C425.368 71.3507 425.722 72.1663 426.039 73.001C426.351 73.8382 426.644 74.6849 426.859 75.5722C426.264 74.8793 425.749 74.1466 425.252 73.4036C424.76 72.6579 424.305 71.8942 423.865 71.1226L423.669 70.7779L423.933 70.4366C424.439 69.7826 424.925 69.1121 425.456 68.4779C425.974 67.8325 426.507 67.2001 427.058 66.5814C427.608 65.962 428.169 65.352 428.759 64.7627C429.345 64.1726 429.947 63.5954 430.6 63.0572Z" fill="#C1725D"/>
<path d="M444.556 65.2768C444.556 65.2768 444.02 64.6979 443.213 64.0326C443.019 63.8581 442.776 63.7078 442.553 63.5272C442.304 63.3751 442.074 63.1825 441.797 63.0425C441.666 62.9656 441.532 62.887 441.396 62.8075C441.253 62.7435 441.11 62.6779 440.969 62.6044C440.694 62.4481 440.375 62.3703 440.084 62.2381C439.774 62.1457 439.464 62.0541 439.158 61.9633C438.839 61.9141 438.531 61.8208 438.221 61.7707C437.908 61.7361 437.603 61.6886 437.31 61.6385C437.014 61.616 436.729 61.5936 436.462 61.5633C435.926 61.4882 435.468 61.5115 435.136 61.464C434.804 61.432 434.604 61.3983 434.604 61.3983C434.604 61.3983 434.763 61.2886 435.057 61.1218C435.205 61.0406 435.385 60.9378 435.6 60.8393C435.811 60.7261 436.059 60.6267 436.34 60.5559C436.619 60.473 436.925 60.377 437.257 60.3088C437.592 60.2682 437.951 60.231 438.324 60.2068C438.697 60.1973 439.089 60.2423 439.485 60.2803C439.879 60.3442 440.276 60.4565 440.668 60.5706C441.041 60.7425 441.44 60.8618 441.776 61.095C442.128 61.2955 442.45 61.5288 442.732 61.7906C443.032 62.0273 443.257 62.328 443.484 62.5846C443.685 62.868 443.871 63.1332 444.001 63.4036C444.292 63.9229 444.422 64.4067 444.493 64.7402C444.561 65.0781 444.556 65.2768 444.556 65.2768Z" fill="#352C38"/>
<path d="M436.584 68.471C436.129 69.6996 435.293 70.523 434.719 70.3105C434.144 70.0971 434.047 68.9289 434.503 67.7003C434.958 66.4717 435.793 65.6483 436.368 65.8609C436.943 66.0743 437.039 67.2424 436.584 68.471Z" fill="#352C38"/>
<path d="M423.246 64.475C422.791 65.7036 421.956 66.527 421.381 66.3145C420.806 66.1011 420.71 64.9329 421.165 63.7043C421.62 62.4757 422.456 61.6523 423.03 61.8649C423.606 62.0774 423.703 63.2464 423.246 64.475Z" fill="#352C38"/>
<path d="M447.401 79.8905C447.401 79.8905 449.521 76.4552 449.772 72.5093C449.772 72.5093 454.587 72.1715 453.796 76.7965C453.004 81.4215 449.229 80.98 447.401 79.8905Z" fill="#FFAC9D"/>
<path d="M448.2 79.9907C448.018 80.6586 448.411 81.3472 449.079 81.5295C449.747 81.7118 450.436 81.3187 450.618 80.6508C450.8 79.9829 450.407 79.2943 449.739 79.112C449.071 78.9297 448.383 79.3228 448.2 79.9907Z" fill="white"/>
<path d="M452.747 76.7464C452.527 76.203 452.291 75.6802 452.024 75.2137C451.951 75.1013 451.878 74.9916 451.801 74.8931C451.726 74.792 451.641 74.703 451.554 74.6374C451.467 74.5665 451.382 74.5216 451.297 74.4914C451.212 74.4629 451.124 74.4698 451.033 74.4741L451.304 74.2382C450.947 75.4003 450.53 76.5434 449.909 77.6242C450.001 76.3809 450.297 75.2007 450.654 74.0386L450.722 73.8192L450.925 73.8027C451.123 73.7863 451.321 73.7924 451.512 73.8632C451.609 73.8883 451.685 73.9479 451.77 73.9911C451.86 74.0334 451.912 74.106 451.981 74.1639C452.108 74.2875 452.208 74.424 452.29 74.5622C452.379 74.6987 452.434 74.8456 452.494 74.9873C452.71 75.5627 452.78 76.158 452.747 76.7464Z" fill="#D8866C"/>
<path d="M424.639 78.2567C426.091 78.8407 427.41 79.6244 428.696 80.4564L429.935 81.2573L428.455 81.2124C427.663 81.1882 426.873 81.1398 426.085 81.0509C425.296 80.9645 424.508 80.8452 423.722 80.6404C424.519 80.4892 425.314 80.4236 426.107 80.3899C426.9 80.3536 427.692 80.3588 428.483 80.3882L428.241 81.1433C426.974 80.2802 425.741 79.3687 424.639 78.2567Z" fill="#C1725D"/>
<path d="M186.023 335.895C186.023 337.704 184.557 339.17 182.748 339.17H182.339C180.531 339.17 179.064 337.704 179.064 335.895V317.067C179.064 315.259 180.531 313.793 182.339 313.793H182.748C184.557 313.793 186.023 315.259 186.023 317.067V335.895Z" fill="#765E69"/>
<path opacity="0.4" d="M186.023 325.705V317.067C186.023 315.259 184.557 313.793 182.748 313.793H182.339C180.531 313.793 179.064 315.259 179.064 317.067V326.476C181.381 326.188 183.699 325.922 186.023 325.705Z" fill="#352C38"/>
<path d="M416.464 335.895C416.464 337.704 414.998 339.17 413.189 339.17H412.78C410.971 339.17 409.505 337.704 409.505 335.895V317.067C409.505 315.259 410.971 313.793 412.78 313.793H413.189C414.998 313.793 416.464 315.259 416.464 317.067V335.895Z" fill="#765E69"/>
<path opacity="0.4" d="M416.464 325.705V317.067C416.464 315.259 414.998 313.793 413.189 313.793H412.78C410.971 313.793 409.505 315.259 409.505 317.067V326.476C411.822 326.188 414.14 325.922 416.464 325.705Z" fill="#352C38"/>
<path d="M183.377 261.422C183.377 261.422 151.977 191.118 174.502 179.702C197.029 168.285 270.75 164.079 322.628 167.084C374.506 170.088 425.702 170.689 424.337 194.724C422.972 218.759 412.05 262.624 412.05 262.624L183.377 261.422Z" fill="#6F96BD"/>
<path d="M183.377 261.422C183.377 261.422 151.977 191.118 174.502 179.702C197.029 168.285 270.75 164.079 322.628 167.084C374.506 170.088 425.702 170.689 424.337 194.724C422.972 218.759 412.05 262.624 412.05 262.624L183.377 261.422Z" fill="#5E88AA"/>
<path d="M173.82 323.367H427.068L415.463 254.812H179.964L173.82 323.367Z" fill="#6F96BD"/>
<path d="M189.52 254.211L186.789 293.479L416.146 294.296L415.463 255.029L189.52 254.211Z" fill="#7DA7C9"/>
<path opacity="0.5" d="M189.52 254.211L186.789 269.956L416.146 270.284L415.463 254.539L189.52 254.211Z" fill="#5E88AA"/>
<path d="M189.52 254.211C189.52 254.211 179.964 217.558 162.216 213.952C144.468 210.347 139.008 225.369 151.294 242.194C163.581 259.018 145.834 307.143 160.169 317.959C174.503 328.774 184.06 319.761 184.06 319.761L189.52 254.211Z" fill="#6F96BD"/>
<path d="M411.568 254.211C411.568 254.211 421.124 217.558 438.872 213.952C456.619 210.347 462.081 225.369 449.794 242.194C437.507 259.018 455.254 307.143 440.919 317.959C426.585 328.774 417.028 319.761 417.028 319.761L411.568 254.211Z" fill="#6F96BD"/>
<path d="M321.096 228.111C321.096 228.111 317.275 245.029 321.642 255.397C326.007 265.766 341.834 264.675 365.301 263.038C388.768 261.4 369.667 228.656 369.667 228.656L321.096 228.111Z" fill="#FDEDEE"/>
<path d="M393.133 319.796C393.133 319.796 392.587 338.078 393.679 338.078C394.771 338.078 462.443 345.172 409.779 330.165L409.506 318.432L393.133 319.796Z" fill="#352C38"/>
<path d="M429.108 337.219C426.655 340.042 395.569 336.886 393.261 336.721C393.362 337.565 393.498 338.079 393.679 338.079C394.528 338.078 435.619 342.365 429.108 337.219Z" fill="#FDEDEE"/>
<path d="M409.589 321.987L409.506 318.431L393.134 319.795C393.134 319.795 393.036 323.093 393.006 326.886C398.591 325.457 404.131 323.862 409.589 321.987Z" fill="#231D26"/>
<path d="M410.672 329.662C410.023 330.816 409.318 331.934 408.556 333.017C408.175 333.557 409.063 334.068 409.44 333.533C410.202 332.451 410.907 331.333 411.556 330.178C411.88 329.602 410.996 329.086 410.672 329.662Z" fill="#FDEDEE"/>
<path d="M413.521 330.745C412.58 331.785 411.808 332.95 411.057 334.131C410.702 334.69 411.588 335.202 411.941 334.648C412.644 333.539 413.362 332.445 414.245 331.468C414.686 330.98 413.964 330.254 413.521 330.745Z" fill="#FDEDEE"/>
<path opacity="0.1" d="M321.096 228.111C321.096 228.111 317.275 245.029 321.642 255.397C326.007 265.766 341.834 264.675 365.301 263.038C388.768 261.4 369.667 228.656 369.667 228.656L321.096 228.111Z" fill="#3A323F"/>
<path d="M394.225 249.394C394.225 249.394 409.502 244.481 413.815 248.794C418.128 253.107 414.431 319.038 414.431 319.038L390.4 320.886C390.4 320.886 388.322 286.28 390.678 265.22C390.94 262.881 345.548 262.876 345.927 260.854C347.087 254.666 391.626 250.405 394.225 249.394Z" fill="#FDEDEE"/>
<path opacity="0.1" d="M390.678 265.221C390.413 267.582 390.206 270.113 390.044 272.747C390.109 272.726 390.175 272.706 390.241 272.685C396.786 270.617 403.094 268.037 409.343 265.207C411.331 264.307 413.627 263.309 415.746 262.059C415.494 255.032 414.916 249.896 413.814 248.794C409.501 244.481 394.225 249.394 394.225 249.394C391.626 250.405 347.087 254.666 345.926 260.855C345.548 262.877 390.94 262.881 390.678 265.221Z" fill="#3A323F"/>
<path d="M318.841 173.607C318.841 173.607 317.964 219.718 319.505 232.353C319.505 232.353 344.648 238.911 379.803 232.039L376.818 161.948L366.411 157.107L318.841 173.607Z" fill="#FC6A5A"/>
<path d="M335.285 147.34C335.285 147.34 318.806 150.015 313.455 159.346C310.563 164.39 306.6 180.853 306.6 180.853L322.64 183.628L350.609 187.822L385.562 210.85C385.562 210.85 379.55 165.001 375.943 158.527C370.948 149.557 350.566 147.066 350.566 147.066C350.566 147.066 351.059 162.971 335.285 147.34Z" fill="#FC6A5A"/>
<path d="M329.827 149.25L330.1 140.79C330.1 140.79 339.378 138.88 355.205 142.428L354.386 150.614C354.386 150.614 354.113 158.8 344.563 157.981C335.012 157.163 329.827 149.25 329.827 149.25Z" fill="#FC6A5A"/>
<path opacity="0.2" d="M324.434 171.667L318.841 173.607C318.841 173.607 317.964 219.718 319.505 232.354C319.505 232.354 344.648 238.911 379.803 232.04L377.7 182.656C359.851 180.145 341.394 177.919 324.434 171.667Z" fill="#352C38"/>
<path d="M315.827 130.346C315.827 130.346 312.062 135.593 317.424 137.989C322.785 140.385 325.979 144.948 321.758 149.967C317.538 154.986 323.241 158.522 317.652 165.024C312.062 171.525 303.051 172.667 297.576 167.419C292.101 162.172 298.26 142.552 298.26 142.552L315.827 130.346Z" fill="#352C38"/>
<path d="M374.628 182.757C374.628 182.757 378.397 171.665 388.094 168.035L390.387 171.663L374.628 182.757Z" fill="#FDEDEE"/>
<path d="M374.7 184.352C374.7 184.352 377.989 175.036 359.98 165.213L357.574 170.727L374.7 184.352Z" fill="white"/>
<path d="M373.827 184.626C373.827 184.626 371.691 175.291 385.68 165.649L387.291 171.179L373.827 184.626Z" fill="white"/>
<path d="M353.477 168.512L355.74 165.48C355.74 165.48 373.646 172.675 374.628 182.756L353.477 168.512Z" fill="#FDEDEE"/>
<path d="M392.376 167.418L375.453 179.749L353.74 166.462L339.267 189.643L360.643 202.501L365.866 198.987L386.153 184.179L392.376 167.418Z" fill="#352C38"/>
<path d="M392.376 167.418L375.453 179.749L363.858 201.376L382.179 192.054L392.376 167.418Z" fill="#201A23"/>
<path d="M376.566 179.045L374.213 179.059L360.643 202.501L364.018 201.858L376.566 179.045Z" fill="#433947"/>
<path d="M394.498 169.17C395.113 170.466 392.672 173.971 390.337 178.516C388.003 183.061 395.838 204.16 390.952 208.396C386.066 212.631 380.856 210.682 379.354 205.463C377.853 200.243 382.424 184.724 383.311 179.199C383.603 177.371 385.836 174.053 385.836 174.053L386.925 171.421C386.925 171.421 378.603 164.94 388.29 170.466C388.29 170.466 379.353 161.325 390.064 169.375C390.064 169.375 381.771 160.739 391.662 168.107C391.662 168.107 386.176 156.208 394.498 169.17Z" fill="#FDDEC0"/>
<path d="M381.468 182.404L390.883 181.79C390.883 181.79 397.84 210.646 388.631 215.762C379.422 220.879 374.715 206.349 381.468 182.404Z" fill="#FC6A5A"/>
<path d="M340.874 176.785L340.071 176.143C340.071 176.143 350.517 165.214 343.285 175.661C336.052 186.107 339.107 180.804 339.107 180.804" fill="#FDDEC0"/>
<path d="M347.963 176.349C366.201 172.788 344.263 173.977 341.759 174.723C341.249 174.875 339.626 176.144 337.362 178.07C334.577 180.44 330.822 183.805 326.982 187.305C328.53 191.69 330.814 195.775 333.356 199.713C339.088 191.465 343.401 183.107 343.401 183.107C366.221 182.725 348.363 180.56 348.363 180.56C367.336 179.292 348.278 178.661 348.278 178.661C371.214 176.159 347.963 176.349 347.963 176.349Z" fill="#FDDEC0"/>
<path d="M332.556 147.34C332.556 147.34 315.555 147.371 310.18 158.8C307.386 164.742 304.764 175.312 303.631 186.36C300.356 218.287 306.086 218.014 314.273 217.195C322.459 216.376 330.645 203.551 338.286 192.909L331.464 181.995L318.911 191.818L332.556 147.34Z" fill="#FC6A5A"/>
<path d="M333.763 125.281C334.508 129.028 333.111 132.464 330.642 132.956C328.173 133.447 325.567 130.808 324.821 127.06C324.075 123.312 325.473 119.876 327.942 119.385C330.411 118.894 333.017 121.534 333.763 125.281Z" fill="#FDDEC0"/>
<path d="M331.342 141.362C331.342 141.362 342.28 152.666 350.3 150.694C359.723 148.376 361.908 137.141 361.209 123.727C360.12 102.842 353.382 101.662 343.147 102.722C319.969 105.121 331.342 141.362 331.342 141.362Z" fill="#FDDEC0"/>
<path d="M335.521 110.236C335.521 110.236 337.895 119.207 332.096 122.004L332.15 129.812L329.705 130.442L329.082 122.194C329.082 122.194 325.826 121.342 325.515 124.545C324.8 131.9 329.367 132.419 329.367 132.419L331.343 141.362C331.343 141.362 318.32 127.026 322.461 110.229C325.327 98.5978 335.521 110.236 335.521 110.236Z" fill="#352C38"/>
<path d="M335.521 110.236C335.521 110.236 342.246 113.927 353.567 112.139L347.435 109.181C347.435 109.181 360.246 112.16 369.78 105.308C369.78 105.308 362.63 97.5619 353.99 96.0724C353.99 96.0724 360.544 94.8809 365.311 97.2638C365.311 97.2638 355.479 89.5181 341.476 93.3905C327.474 97.2638 327.195 106.751 329.281 112.412C331.367 118.073 335.521 110.236 335.521 110.236Z" fill="#352C38"/>
<path d="M349.135 136.433C351.33 135.752 353.553 135.225 355.78 134.72L355.418 135.309C355.076 134.291 354.748 133.268 354.443 132.239C354.134 131.21 353.845 130.176 353.574 129.137C353.036 127.057 352.554 124.961 352.251 122.812C353.153 124.786 353.876 126.811 354.543 128.853C354.875 129.875 355.187 130.902 355.481 131.934C355.779 132.966 356.053 134.005 356.313 135.047L356.442 135.563L355.95 135.636C353.692 135.968 351.428 136.278 349.135 136.433Z" fill="#D8B691"/>
<path d="M340.319 124.274C340.319 124.274 340.363 124.444 340.46 124.729C340.555 125.012 340.701 125.413 340.925 125.847C341.151 126.277 341.464 126.747 341.896 127.066C342.321 127.394 342.865 127.534 343.452 127.512L343.66 127.497L343.914 127.466C344.048 127.444 344.183 127.421 344.326 127.383C344.601 127.305 344.853 127.196 345.077 127.059C345.519 126.775 345.842 126.356 346.053 125.93C346.264 125.505 346.381 125.099 346.456 124.81C346.527 124.52 346.557 124.343 346.557 124.343C346.557 124.343 346.625 124.508 346.678 124.818C346.73 125.125 346.768 125.581 346.653 126.133C346.547 126.677 346.239 127.344 345.637 127.823C345.345 128.07 344.987 128.246 344.616 128.36C344.435 128.417 344.238 128.462 344.036 128.498L343.781 128.527C343.66 128.538 343.579 128.535 343.477 128.54C343.087 128.542 342.68 128.495 342.302 128.355C341.925 128.213 341.582 127.995 341.311 127.735C340.775 127.199 340.521 126.567 340.394 126.041C340.266 125.51 340.257 125.063 340.267 124.755C340.283 124.447 340.319 124.274 340.319 124.274Z" fill="#211B23"/>
<path d="M353.608 123.949C353.608 123.949 353.654 124.12 353.754 124.403C353.853 124.685 354.003 125.084 354.233 125.516C354.463 125.943 354.781 126.41 355.218 126.724C355.645 127.047 356.191 127.181 356.778 127.152L356.986 127.135L357.24 127.101C357.374 127.078 357.51 127.053 357.651 127.013C357.924 126.932 358.175 126.82 358.397 126.68C358.836 126.392 359.155 125.968 359.36 125.541C359.566 125.114 359.678 124.706 359.75 124.416C359.818 124.125 359.845 123.948 359.845 123.948C359.845 123.948 359.916 124.113 359.971 124.421C360.027 124.728 360.071 125.184 359.961 125.737C359.862 126.282 359.561 126.953 358.965 127.439C358.676 127.689 358.32 127.869 357.951 127.988C357.771 128.047 357.574 128.094 357.372 128.133L357.118 128.164C356.997 128.177 356.917 128.175 356.814 128.181C356.425 128.188 356.018 128.145 355.637 128.01C355.259 127.873 354.913 127.659 354.64 127.402C354.098 126.872 353.837 126.243 353.703 125.719C353.569 125.189 353.554 124.742 353.561 124.434C353.574 124.122 353.608 123.949 353.608 123.949Z" fill="#211B23"/>
<path d="M355.637 138.459C355.637 138.459 355.497 138.657 355.192 138.954C354.887 139.247 354.427 139.657 353.789 140.027C353.48 140.231 353.115 140.396 352.728 140.574C352.329 140.715 351.914 140.909 351.452 140.992C351.223 141.043 350.99 141.094 350.755 141.146C350.516 141.175 350.272 141.199 350.026 141.217C349.533 141.285 349.032 141.212 348.529 141.208C348.034 141.138 347.541 141.04 347.063 140.931C346.597 140.781 346.138 140.625 345.711 140.447C345.294 140.245 344.9 140.031 344.53 139.832C344.173 139.61 343.858 139.364 343.564 139.15C343.264 138.942 343.007 138.731 342.804 138.514C342.595 138.306 342.413 138.124 342.264 137.975C341.971 137.671 341.813 137.493 341.813 137.493C341.813 137.493 342.025 137.606 342.398 137.804C342.578 137.906 342.797 138.031 343.048 138.174C343.288 138.33 343.58 138.471 343.898 138.618C344.211 138.77 344.549 138.935 344.907 139.108C345.28 139.246 345.669 139.386 346.063 139.551C346.466 139.691 346.9 139.769 347.321 139.908C347.753 139.993 348.198 140.066 348.641 140.122C349.086 140.133 349.533 140.218 349.972 140.165C350.192 140.15 350.41 140.145 350.627 140.14C350.842 140.11 351.054 140.08 351.263 140.052C351.683 140.004 352.078 139.887 352.462 139.807C352.832 139.684 353.198 139.598 353.518 139.465C354.819 138.986 355.637 138.459 355.637 138.459Z" fill="#D8B691"/>
<path d="M347.765 118.297C347.765 118.297 347.55 118.275 347.204 118.231C346.871 118.185 346.397 118.118 345.827 118.039C345.548 118.01 345.262 117.948 344.955 117.917C344.652 117.872 344.338 117.829 344.017 117.795C343.699 117.742 343.372 117.737 343.048 117.692C342.723 117.676 342.398 117.649 342.077 117.643C341.76 117.656 341.434 117.62 341.129 117.661C340.975 117.676 340.821 117.684 340.664 117.685C340.511 117.695 340.368 117.737 340.217 117.75C340.066 117.768 339.917 117.786 339.771 117.804C339.63 117.838 339.493 117.878 339.352 117.906C339.068 117.957 338.793 118.018 338.55 118.113C338.303 118.199 338.045 118.247 337.831 118.326C337.63 118.419 337.433 118.485 337.271 118.547C336.944 118.667 336.727 118.726 336.727 118.726C336.727 118.726 336.787 118.528 336.943 118.2C337.023 118.038 337.118 117.832 337.254 117.613C337.391 117.397 337.584 117.183 337.798 116.944C337.908 116.827 338.022 116.701 338.152 116.585C338.293 116.483 338.439 116.378 338.588 116.27C338.741 116.161 338.904 116.06 339.071 115.951C339.245 115.861 339.433 115.791 339.622 115.708C340 115.533 340.411 115.424 340.837 115.354C341.262 115.244 341.695 115.271 342.13 115.248C342.991 115.283 343.833 115.452 344.555 115.746C345.288 116.016 345.897 116.41 346.385 116.775C346.864 117.163 347.219 117.531 347.44 117.821C347.669 118.104 347.765 118.297 347.765 118.297Z" fill="#352C38"/>
<path d="M352.304 119.538C352.304 119.538 352.468 119.549 352.756 119.568C353.02 119.59 353.398 119.62 353.851 119.655C354.07 119.66 354.295 119.696 354.532 119.697C354.767 119.714 355.008 119.721 355.25 119.721C355.494 119.742 355.731 119.698 355.972 119.711C356.201 119.66 356.447 119.69 356.664 119.619L357.002 119.564L357.322 119.466C357.545 119.424 357.738 119.312 357.95 119.239C358.17 119.177 358.342 119.026 358.548 118.939C358.76 118.855 358.919 118.703 359.1 118.597C359.273 118.479 359.467 118.39 359.599 118.27C359.736 118.155 359.877 118.063 359.99 117.982C360.22 117.821 360.377 117.732 360.377 117.732C360.377 117.732 360.383 117.899 360.347 118.187C360.306 118.473 360.262 118.902 360.029 119.355C359.914 119.58 359.816 119.85 359.613 120.075C359.414 120.299 359.237 120.582 358.953 120.774C358.681 120.975 358.401 121.21 358.057 121.333C357.889 121.403 357.721 121.485 357.546 121.54L357.008 121.658C356.645 121.741 356.285 121.712 355.932 121.713C355.591 121.664 355.245 121.634 354.943 121.524C354.318 121.355 353.812 121.046 353.409 120.764C353.017 120.456 352.73 120.162 352.556 119.925C352.376 119.696 352.304 119.538 352.304 119.538Z" fill="#352C38"/>
<path d="M423.423 231.93C423.423 231.93 446.617 226.609 449.891 230.293C453.166 233.977 440.887 243.391 425.606 245.574" fill="#352C38"/>
<path d="M449.891 230.293C449.211 229.528 447.666 229.155 445.653 229.039C446.589 229.246 447.302 229.563 447.708 230.02C450.832 233.535 439.796 242.26 425.506 244.951L425.605 245.574C440.887 243.391 453.166 233.977 449.891 230.293Z" fill="#FDEDEE"/>
<path d="M427.841 230.43C428.334 232.456 428.653 234.502 428.914 236.57C428.995 237.215 430.02 237.223 429.937 236.57C429.665 234.413 429.342 232.272 428.828 230.158C428.671 229.516 427.685 229.788 427.841 230.43Z" fill="#FDEDEE"/>
<path d="M431.37 230.02C431.37 232.026 431.38 234.032 431.643 236.023C431.727 236.668 432.752 236.675 432.666 236.023C432.404 234.032 432.393 232.025 432.393 230.02C432.393 229.361 431.37 229.361 431.37 230.02Z" fill="#FDEDEE"/>
<path d="M348.928 235.205C348.928 235.205 342.281 237.52 340.333 240.935C336.216 248.156 336.921 259.981 352.203 263.038C368.827 266.362 426.697 247.075 426.697 247.075L425.469 229.474C425.469 229.474 371.85 231.112 348.928 235.205Z" fill="#FDEDEE"/>
<path d="M296.093 122.248C296.093 122.248 293.926 113.921 287.31 113.465C280.693 113.009 282.063 123.617 276.245 121.222C270.428 118.826 263.926 122.476 265.865 129.891C267.805 137.306 253.66 127.153 253.203 144.264C252.82 158.644 255.485 158.865 255.485 158.865C255.485 158.865 256.968 165.138 266.55 161.717C276.131 158.295 271.226 178.827 287.767 166.85C297.266 159.97 296.093 122.248 296.093 122.248Z" fill="#352C38"/>
<path d="M308.719 172.334C308.719 172.334 303.54 171.318 301.98 169.301C300.421 167.283 302.167 155.892 302.167 155.892L287.448 157.404L286.025 167.148C286.025 167.148 274.126 167.991 272.908 169.218C271.689 170.445 269.342 184.896 285.344 186.814C301.345 188.731 308.719 172.334 308.719 172.334Z" fill="#965450"/>
<path opacity="0.3" d="M293.106 166.202C295.988 165.933 298.728 165.107 301.363 163.949C301.511 160.172 302.166 155.892 302.166 155.892L287.447 157.404L286.176 166.106C288.487 166.225 290.81 166.417 293.106 166.202Z" fill="#352C38"/>
<path d="M309.198 145.661C309.198 145.661 317.655 134.328 304.735 127.442C289.693 119.425 280.95 125.608 277.7 135.279C274.45 144.95 272.331 157.882 282.025 162.278C292.167 166.878 303.614 161.943 309.198 145.661Z" fill="#965450"/>
<path d="M305.561 152.704C305.561 152.704 308.108 148.966 308.072 145.103C308.072 145.103 312.739 144.432 312.297 148.994C311.856 153.555 307.5 154.529 305.561 152.704Z" fill="#965450"/>
<path d="M317.821 131.512C318.367 124.963 316.73 116.776 308.543 118.687C304.098 119.723 299.266 103.951 290.618 122.361C290.618 122.361 289.021 131.259 298.489 132.171C306.324 132.926 295.751 139.472 302.025 141.753C308.299 144.034 300.429 149.168 307.158 149.852C307.158 149.852 308.483 143.756 311.484 146.033C311.617 145.985 311.578 145.885 311.713 145.859C311.819 145.562 312.265 145.412 312.444 145.768C313.276 147.416 314.138 149.045 314.93 150.695C320.676 147.76 323.631 150.619 324.37 146.793C327.372 131.24 317.418 136.336 317.821 131.512Z" fill="#352C38"/>
<path d="M288.092 136.598C288.092 136.598 287.565 136.098 286.785 135.538C286.598 135.39 286.366 135.268 286.151 135.116C285.914 134.992 285.691 134.831 285.43 134.72C285.304 134.658 285.177 134.596 285.049 134.532C284.913 134.483 284.778 134.432 284.645 134.375C284.383 134.251 284.087 134.202 283.813 134.101C283.524 134.04 283.233 133.978 282.948 133.917C282.654 133.896 282.366 133.831 282.078 133.81C281.79 133.801 281.508 133.781 281.234 133.756C280.962 133.759 280.699 133.758 280.452 133.751C279.955 133.722 279.539 133.779 279.23 133.76C278.923 133.755 278.738 133.739 278.738 133.739C278.738 133.739 278.875 133.626 279.131 133.451C279.261 133.365 279.418 133.256 279.606 133.15C279.791 133.03 280.01 132.918 280.262 132.833C280.512 132.735 280.785 132.626 281.083 132.536C281.387 132.473 281.713 132.412 282.054 132.362C282.396 132.323 282.759 132.338 283.125 132.343C283.492 132.371 283.864 132.448 284.233 132.524C284.588 132.657 284.963 132.738 285.287 132.93C285.625 133.09 285.936 133.284 286.212 133.506C286.503 133.705 286.727 133.967 286.952 134.189C287.155 134.437 287.341 134.669 287.476 134.91C287.774 135.37 287.921 135.807 288.004 136.109C288.086 136.415 288.092 136.598 288.092 136.598Z" fill="#352C38"/>
<path d="M288.54 137.835C288.372 138.675 288.147 139.492 287.902 140.3C287.661 141.111 287.388 141.908 287.103 142.698C286.819 143.49 286.514 144.272 286.192 145.048C285.884 145.83 285.526 146.59 285.19 147.36L285.212 146.935C285.38 147.611 285.532 148.291 285.645 148.983C285.753 149.677 285.841 150.376 285.847 151.102C285.443 150.499 285.122 149.872 284.821 149.237C284.524 148.601 284.266 147.954 284.025 147.301L283.952 147.104L284.046 146.875C284.364 146.097 284.659 145.31 285.005 144.544C285.336 143.773 285.685 143.008 286.055 142.252C286.423 141.496 286.805 140.745 287.218 140.008C287.625 139.271 288.054 138.541 288.54 137.835Z" fill="#76413B"/>
<path d="M302.476 139.733C302.476 139.733 301.912 139.207 301.078 138.617C300.876 138.461 300.63 138.331 300.399 138.171C300.145 138.04 299.908 137.869 299.629 137.753C299.495 137.687 299.359 137.62 299.222 137.552C299.077 137.5 298.933 137.446 298.791 137.385C298.511 137.252 298.195 137.2 297.902 137.092C297.594 137.024 297.285 136.957 296.98 136.89C296.667 136.865 296.36 136.796 296.054 136.769C295.748 136.758 295.447 136.734 295.157 136.705C294.867 136.705 294.588 136.704 294.325 136.692C293.797 136.657 293.354 136.712 293.026 136.691C292.7 136.683 292.504 136.665 292.504 136.665C292.504 136.665 292.651 136.546 292.926 136.362C293.064 136.273 293.232 136.159 293.435 136.049C293.632 135.923 293.867 135.809 294.135 135.72C294.401 135.619 294.693 135.504 295.011 135.414C295.334 135.35 295.68 135.288 296.043 135.238C296.407 135.202 296.791 135.218 297.18 135.227C297.568 135.261 297.963 135.343 298.352 135.426C298.728 135.567 299.126 135.654 299.469 135.858C299.826 136.028 300.157 136.233 300.449 136.467C300.759 136.676 300.999 136.953 301.238 137.187C301.455 137.448 301.655 137.694 301.802 137.948C302.121 138.433 302.283 138.896 302.375 139.215C302.467 139.539 302.476 139.733 302.476 139.733Z" fill="#352C38"/>
<path d="M282.146 152.699C282.146 152.699 283.866 158.028 291.352 154.089L282.146 152.699Z" fill="white"/>
<path d="M311.036 149.852C310.982 149.238 310.893 148.621 310.671 148.128C310.552 147.888 310.398 147.707 310.211 147.642C310.025 147.575 309.781 147.587 309.528 147.662L309.761 147.426C309.343 149.023 308.865 150.604 308.185 152.133C308.342 150.467 308.701 148.855 309.119 147.258L309.169 147.066L309.351 147.022C309.682 146.942 310.084 146.889 310.465 147.073C310.846 147.259 311.065 147.624 311.151 147.951C311.25 148.284 311.254 148.613 311.233 148.93C311.193 149.247 311.147 149.557 311.036 149.852Z" fill="#76413B"/>
<path d="M307.074 152.504C306.943 153.167 307.376 153.81 308.039 153.94C308.702 154.071 309.345 153.638 309.476 152.975C309.606 152.312 309.173 151.669 308.511 151.539C307.847 151.408 307.203 151.84 307.074 152.504Z" fill="white"/>
<path d="M295.519 142.566C295.131 143.818 294.342 144.685 293.756 144.504C293.171 144.322 293.01 143.16 293.398 141.909C293.786 140.657 294.575 139.79 295.161 139.971C295.747 140.153 295.906 141.315 295.519 142.566Z" fill="#352C38"/>
<path d="M281.983 139.303C281.595 140.555 280.806 141.422 280.221 141.241C279.637 141.059 279.476 139.897 279.864 138.646C280.252 137.394 281.041 136.527 281.626 136.708C282.211 136.889 282.371 138.052 281.983 139.303Z" fill="#352C38"/>
<path d="M153.922 209.872C153.922 209.872 139.84 203.215 140.082 201.545C140.323 199.875 145.969 152.644 148.178 196.901L156.777 198.951L153.922 209.872Z" fill="#965450"/>
<path opacity="0.2" d="M151.815 208.85C153.08 209.474 153.922 209.871 153.922 209.871L156.777 198.951L153.827 198.238C153 201.744 152.291 205.274 151.815 208.85Z" fill="#28202B"/>
<path d="M148.436 192.323L142.387 193.316L140.349 202.788L138.972 202.441C138.972 202.441 142.261 172.974 145.988 177.649C149.713 182.322 148.436 192.323 148.436 192.323Z" fill="#FFA65B"/>
<path d="M266.248 211.464L253.15 228.655C253.15 228.655 197.484 228.655 197.074 247.074C196.665 265.492 220.405 321.977 220.405 321.977L233.094 319.112C233.094 319.112 240.052 279 222.042 259.353C222.042 259.353 293.671 283.911 299.401 253.213C305.131 222.515 297.355 210.645 297.355 210.645L266.248 211.464Z" fill="#28202B"/>
<path d="M302.813 217.375C302.813 217.375 316.592 251.985 293.262 265.083C269.931 278.181 215.084 229.883 215.084 229.883C215.084 229.883 196.255 236.841 152.05 209.827L156.962 197.547C156.962 197.547 222.451 206.142 257.243 221.697L264.224 213.47L302.813 217.375Z" fill="#352C38"/>
<path d="M233.094 319.112C233.094 319.112 232.275 334.667 230.638 335.076C229.001 335.486 183.158 348.175 223.271 329.346L222.043 321.569L233.094 319.112Z" fill="#965450"/>
<path opacity="0.2" d="M232.947 321.448C233.045 320.042 233.094 319.112 233.094 319.112L222.042 321.569L222.365 323.613C225.923 323.048 229.458 322.365 232.947 321.448Z" fill="#28202B"/>
<path d="M218.937 330.844L222.149 336.065L231.687 334.358L231.888 335.764C231.888 335.764 203.375 343.896 206.286 338.676C209.198 333.455 218.937 330.844 218.937 330.844Z" fill="#FFA65B"/>
<path d="M239.127 164.935C235.984 154.59 241.329 166.519 241.329 166.519C237.275 148.669 243.427 166.112 243.427 166.112C240.079 151.039 245.304 165.671 245.304 165.671C251.802 157.202 246.267 168.245 246.267 168.245L257.414 195.916L269.879 172.489C271.323 173.606 272.823 174.652 274.357 175.654L279.854 186.733C279.854 186.733 262.827 212.276 254.098 211.669C245.37 211.061 243.685 186.169 240.232 171.63C237.834 161.531 238.439 162.863 239.127 164.935Z" fill="#7F4140"/>
<path d="M267.694 184.573L261.607 179.467C261.607 179.467 265.842 166.609 276.148 167.654L267.694 184.573Z" fill="#FFA65B"/>
<path d="M240.052 151.704L241.602 146.88C241.602 146.88 246.055 139.698 258.062 138.879L256.152 151.158L240.052 151.704Z" fill="#EDCBAE"/>
<path d="M240.871 148.158C240.871 148.158 248.238 142.701 259.972 142.701L259.426 150.068L240.871 148.158Z" fill="#FDDEC0"/>
<path d="M240.052 151.704L240.971 146.031C240.971 146.031 241.622 137.4 237.866 135.425L234.853 149.69L240.052 151.704Z" fill="#EDCBAE"/>
<path d="M240.834 147.561C240.834 147.561 240.002 140.658 236.094 139.646L234.086 148.153L240.834 147.561Z" fill="#FDDEC0"/>
<path d="M259.046 173.831L238.871 175.74L241.601 146.881L261.671 145.502L259.046 173.831Z" fill="#FC6A5A"/>
<path d="M239.69 146.335L235.005 138.448L232.111 167.214L236.961 175.194L239.69 146.335Z" fill="#FC6A5A"/>
<path opacity="0.3" d="M239.69 146.335L235.005 138.448L232.111 167.214L236.961 175.194L239.69 146.335Z" fill="#352C38"/>
<path d="M239.69 146.335L241.601 146.881L238.871 175.74L236.961 175.194L239.69 146.335Z" fill="#FF867D"/>
<path d="M268.148 170.423L276.147 167.654C276.147 167.654 272.656 177.969 284.568 180.795C296.48 183.621 308.007 170.973 308.007 170.973C308.007 170.973 317.426 177.16 317.74 185.838C318.053 194.516 302.812 217.375 302.812 217.375C283.87 221.725 264.223 213.47 264.223 213.47C255.275 191.181 268.148 170.423 268.148 170.423Z" fill="#FFA65B"/>
<path opacity="0.15" d="M283.305 200.583C291.183 204.042 299.349 207.23 307.72 209.516C305.012 214.078 302.814 217.375 302.814 217.375C283.872 221.725 264.224 213.47 264.224 213.47C259.206 200.969 261.051 188.951 263.64 180.807C267.315 189.947 273.755 196.39 283.305 200.583Z" fill="#352C38"/>
<path d="M302.428 201.899L293.257 186.35L265.772 199.351L254.708 171.024C254.708 171.024 260.972 160.275 253.757 168.393C253.757 168.393 248.622 153.452 251.735 168.73C251.735 168.73 245.696 150.923 249.479 169.021C249.479 169.021 243.406 155.118 247.882 169.685C247.882 169.685 242.76 158.413 247.516 172.791C252.273 187.169 252.417 213.842 261.735 214.937C271.054 216.033 302.428 201.899 302.428 201.899Z" fill="#965450"/>
<path opacity="0.1" d="M291.504 187.179L293.257 186.35L302.428 201.899C302.428 201.899 301.377 202.372 299.618 203.133C296.509 198.018 293.601 192.799 291.504 187.179Z" fill="#352C38"/>
<path d="M157.724 70.3424C157.724 70.3424 141.427 83.159 145.791 104.254C150.154 125.348 167.38 181.954 171.77 182.62C176.159 183.286 181.191 181.48 181.191 181.48C181.191 181.48 185.78 203.19 184.15 179.973C184.15 179.973 188.471 200.708 186.521 178.956C186.521 178.956 193.298 198.463 188.056 177.864C188.056 177.864 196.646 190.868 188.934 176.483C188.934 176.483 187.451 173.729 183.882 174.891C180.313 176.052 180.313 176.052 180.313 176.052L157.724 70.3424Z" fill="#FFAC9D"/>
<path opacity="0.2" d="M159.512 153.399C164.381 151.183 169.183 148.766 173.929 146.177L157.724 70.3424C157.724 70.3424 141.426 83.159 145.79 104.254C148.072 115.285 153.871 136.024 159.512 153.399Z" fill="#352C38"/>
<path d="M157.294 149.617C162.358 147.568 169.829 144.961 174.756 142.48L159.597 68.3725C159.597 68.3725 140.083 72.3115 145.79 104.254C147.604 114.41 152.133 133.283 157.294 149.617Z" fill="#352C38"/>
<path opacity="0.15" d="M61.0782 348.829C94.3373 348.829 121.299 344.755 121.299 339.728C121.299 334.702 94.3373 330.627 61.0782 330.627C27.8192 330.627 0.857422 334.702 0.857422 339.728C0.857422 344.755 27.8192 348.829 61.0782 348.829Z" fill="#352C38"/>
<path d="M96.0763 102.329C96.0763 102.329 90.799 102.329 88.88 100.649C86.9611 98.9702 86.4816 87.4557 86.4816 87.4557L72.3292 91.7731L72.8088 101.608C72.8088 101.608 61.2951 104.726 60.3352 106.166C59.3753 107.605 59.8557 122.237 75.9269 121.038C91.9991 119.839 96.0763 102.329 96.0763 102.329Z" fill="#FFAC9D"/>
<path opacity="0.1" d="M96.0763 102.329C96.0763 102.329 90.799 102.329 88.88 100.649C86.9611 98.9702 86.4816 87.4557 86.4816 87.4557L72.3292 91.7731L72.8088 101.608C72.8088 101.608 61.2951 104.726 60.3352 106.166C59.3753 107.605 59.8557 122.237 75.9269 121.038C91.9991 119.839 96.0763 102.329 96.0763 102.329Z" fill="#352C38"/>
<path d="M48.6997 83.1867C48.6997 83.1867 48.7023 82.9015 48.7083 82.3659C48.7101 81.8302 48.7204 81.0457 48.7611 80.046C48.7973 79.0464 48.8578 77.8333 48.9788 76.4449C49.0876 75.0547 49.2682 73.4908 49.5369 71.7948C49.8022 70.0979 50.1737 68.2714 50.6584 66.3611C51.1474 64.4525 51.76 62.4576 52.5868 60.466C53.4085 58.4737 54.4211 56.4735 55.6912 54.5865C56.95 52.6952 58.5113 50.9422 60.3611 49.5252C62.2144 48.1238 64.3908 47.1172 66.6441 46.6844C68.894 46.2489 71.2034 46.3293 73.3056 46.7526C75.4267 47.0481 77.4631 47.6702 79.3199 48.3148C81.1516 49.0595 82.8588 49.8371 84.3051 50.7832C85.7835 51.674 87.0129 52.6788 88.0454 53.6197C89.0753 54.5667 89.8831 55.4816 90.513 56.2601C91.7615 57.8308 92.26 58.8694 92.26 58.8694C92.26 58.8694 91.7252 57.8481 90.4283 56.3301C89.7751 55.5784 88.9414 54.698 87.8882 53.7968C86.8315 52.9035 85.5839 51.9556 84.1133 51.0986C82.6696 50.194 80.971 49.4613 79.1557 48.764C77.2947 48.1627 75.3437 47.6097 73.2192 47.3151C71.1231 46.9082 68.9303 46.8555 66.7642 47.2849C64.6051 47.7134 62.5323 48.6915 60.7551 50.0479C58.9666 51.3992 57.4382 53.0892 56.1958 54.9304C54.9421 56.7655 53.933 58.7251 53.1104 60.6846C51.4732 64.6124 50.5046 68.4995 49.8989 71.857C49.6078 73.5392 49.371 75.0892 49.2129 76.4699C49.0436 77.8489 48.9408 79.0576 48.8699 80.0529C48.7947 81.0483 48.7567 81.8328 48.736 82.3676C48.7127 82.9015 48.6997 83.1867 48.6997 83.1867Z" fill="#352C38"/>
<path d="M54.3736 83.6316L54.2379 85.3916C53.5087 85.1332 52.7855 84.8611 52.0658 84.5742C51.8377 81.196 52.3708 78.1806 52.3708 78.1806C51.7168 79.2926 51.4472 82.1352 51.3366 84.2891C50.5944 83.9824 49.8566 83.661 49.1239 83.3266C49.4617 62.6226 57.2999 44.5149 72.521 46.2377C88.1447 48.0063 93.4825 58.5454 93.4825 58.5454L87.0163 86.5277C80.6824 87.7797 74.2343 88.3905 67.7742 88.1236C63.3324 87.9404 59.0979 87.0358 55.0207 85.6611L54.3736 83.6316Z" fill="#352C38"/>
<path d="M81.6509 51.9194C81.6509 51.9194 82.3231 51.6325 83.5673 51.3413C84.1894 51.1988 84.954 51.0579 85.8431 50.981C86.7313 50.8808 87.7447 50.8972 88.8437 51.0078C89.9402 51.1504 91.1143 51.4398 92.2911 51.9401C93.4402 52.4896 94.6023 53.2171 95.5743 54.2297C95.8646 54.4837 96.0339 54.7515 96.2724 55.0142C96.4919 55.2829 96.7295 55.5326 96.9239 55.8411C97.3377 56.432 97.7516 57.0325 98.0911 57.6701C98.8273 58.9212 99.4087 60.2716 99.9695 61.6247C100.485 62.995 100.946 64.3834 101.348 65.7632C101.748 67.1439 102.102 68.5116 102.419 69.8404C102.739 71.1693 102.997 72.4635 103.238 73.6913C103.46 74.9216 103.671 76.0854 103.864 77.1594C104.241 79.3082 104.482 81.1105 104.674 82.3676C104.848 83.6282 104.948 84.3479 104.948 84.3479C104.948 84.3479 104.367 81.5001 103.495 77.2285C103.066 75.0936 102.51 72.6139 101.856 69.977C101.527 68.6594 101.162 67.3046 100.751 65.9412C100.339 64.5787 99.8675 63.2127 99.3482 61.8674C98.8108 60.5326 98.2536 59.1994 97.5494 57.976C97.2219 57.3453 96.8349 56.775 96.4521 56.2108C96.2776 55.9214 96.0365 55.6605 95.8205 55.3918C95.5976 55.1403 95.3885 54.8241 95.1596 54.6323C94.2394 53.6707 93.1707 52.9406 92.0872 52.3799C90.977 51.8675 89.8538 51.5504 88.7928 51.3785C87.7283 51.2463 86.7373 51.1746 85.8586 51.2273C84.9799 51.2575 84.2162 51.3586 83.5923 51.4675C82.3439 51.6878 81.6509 51.9194 81.6509 51.9194Z" fill="#352C38"/>
<path d="M81.7434 51.4779C81.7434 51.4779 90.2815 48.5843 95.5398 54.5934C100.648 60.4315 102.491 73.7587 103.996 84.633C103.078 84.9751 102.142 85.3112 101.196 85.6344L100.992 83.7431L100.647 85.8193C94.8183 87.7598 88.5785 89.0593 83.1042 87.2189L86.6414 59.9131L81.7434 51.4779Z" fill="#352C38"/>
<path d="M91.4115 76.063C91.4115 76.063 97.5278 63.3138 83.5241 59.0439C67.2195 54.0733 59.8315 61.8243 58.5044 71.94C57.1773 82.0557 57.5877 95.1531 67.9462 97.6016C78.7842 100.163 89.0675 93.1149 91.4115 76.063Z" fill="#FFAC9D"/>
<path d="M84.636 88.3041C85.9856 85.2456 87.819 80.1808 85.221 75.5688C75.2064 57.7928 84.7199 55.0393 84.7199 55.0393C93.4696 52.0239 96.1929 73.7613 97.4302 86.6349C90.3108 88.972 88.6822 87.549 84.636 88.3041Z" fill="#352C38"/>
<path d="M89.8658 83.2981C89.8658 83.2981 90.9787 79.5155 90.1994 75.7321C90.1994 75.7321 94.6498 74.1743 95.0948 78.7362C95.5397 83.2981 91.8677 83.8545 89.8658 83.2981Z" fill="#FFAC9D"/>
<path d="M68.7039 69.9536C68.7039 69.9536 68.0913 69.564 67.2178 69.1657C67.0053 69.0568 66.7547 68.9808 66.5137 68.8736C66.2571 68.7985 66.0074 68.6827 65.73 68.6248C65.5952 68.5885 65.4587 68.5514 65.3196 68.5133C65.1771 68.4917 65.0345 68.4675 64.8937 68.4373C64.6129 68.3656 64.3131 68.3751 64.0245 68.3284C63.7281 68.3241 63.4318 68.3189 63.1406 68.3146C62.8469 68.35 62.5531 68.3414 62.2663 68.3768C61.982 68.4235 61.7003 68.458 61.4282 68.4857C61.1621 68.5419 60.9037 68.5911 60.6601 68.6317C60.1667 68.6982 59.7693 68.8348 59.4626 68.8754C59.161 68.9298 58.9761 68.9497 58.9761 68.9497C58.9761 68.9497 59.0885 68.8123 59.3062 68.5902C59.4168 68.4814 59.5498 68.3449 59.7149 68.204C59.873 68.0502 60.0656 67.899 60.2972 67.766C60.5227 67.6225 60.7698 67.4618 61.0454 67.3158C61.3314 67.1957 61.6398 67.073 61.9647 66.9581C62.293 66.8545 62.6516 66.7983 63.0127 66.7335C63.3774 66.6894 63.7584 66.6946 64.1342 66.6972C64.5083 66.7594 64.8919 66.7672 65.2471 66.8933C65.6091 66.9858 65.9521 67.1163 66.2648 67.2813C66.588 67.4204 66.8601 67.6338 67.1228 67.8092C67.369 68.0131 67.5971 68.2057 67.7768 68.4157C68.157 68.8097 68.386 69.2097 68.5259 69.4905C68.6624 69.7756 68.7039 69.9536 68.7039 69.9536Z" fill="#352C38"/>
<path d="M79.7994 76.6254C79.7994 76.6254 79.8132 76.8233 79.8184 77.1672C79.8184 77.3382 79.8253 77.5465 79.8141 77.7841C79.7804 78.0243 79.7407 78.3007 79.6802 78.604C79.6352 78.9133 79.4961 79.2174 79.376 79.5561C79.2223 79.8784 79.0477 80.2335 78.7738 80.5445C78.6278 80.6957 78.4939 80.8634 78.3237 81.0042C78.1379 81.1321 77.9479 81.266 77.7431 81.3783C77.5159 81.4526 77.2852 81.5451 77.045 81.5883C76.7996 81.5926 76.543 81.6254 76.3019 81.5831C75.8103 81.4949 75.3705 81.2815 75.0103 81.0016C74.8435 80.8521 74.6785 80.7009 74.5299 80.5437C74.4089 80.3709 74.2888 80.2007 74.1713 80.0331C73.9536 79.6944 73.8153 79.3324 73.6944 78.9988C73.6054 78.655 73.5017 78.3362 73.4749 78.0329C73.4404 77.7314 73.4231 77.4549 73.4093 77.2138C73.4084 76.971 73.436 76.7585 73.4481 76.5857C73.4801 76.2401 73.5104 76.0483 73.5104 76.0483C73.5104 76.0483 73.5795 76.2384 73.6814 76.5624C73.7289 76.7222 73.7877 76.9175 73.8542 77.1404C73.9415 77.3564 74.0383 77.5966 74.129 77.8584C74.2223 78.1202 74.3856 78.3724 74.5039 78.6558C74.6577 78.9185 74.8305 79.1907 75.0215 79.4404C75.1243 79.5579 75.2288 79.6779 75.3343 79.7989C75.4569 79.8939 75.5796 79.9855 75.6954 80.0875C75.9477 80.2525 76.2112 80.3717 76.4816 80.4193C76.6156 80.4486 76.7504 80.4175 76.886 80.4322L77.286 80.3329C77.4113 80.2638 77.5366 80.1903 77.6696 80.129C77.7932 80.0477 77.9003 79.9328 78.0187 79.8395C78.1457 79.7548 78.2217 79.6088 78.3271 79.4982C78.4196 79.3747 78.5414 79.2771 78.6097 79.1379C78.7488 78.8692 78.9449 78.6351 79.0469 78.3845C79.1566 78.1366 79.2724 77.9085 79.3769 77.7011C79.4607 77.4782 79.5333 77.2847 79.5929 77.1248C79.7156 76.806 79.7994 76.6254 79.7994 76.6254Z" fill="#352C38"/>
<path d="M66.2484 76.5416C66.2484 76.5416 66.2623 76.7395 66.2674 77.0825C66.2674 77.2536 66.2744 77.4618 66.2631 77.6994C66.2294 77.9396 66.1897 78.216 66.1292 78.5193C66.0843 78.8286 65.9452 79.1328 65.8251 79.4706C65.6713 79.7929 65.4968 80.148 65.2229 80.4599C65.0769 80.6111 64.9429 80.7787 64.7727 80.9195C64.587 81.0474 64.3969 81.1813 64.1921 81.2928C63.9649 81.3671 63.7342 81.4595 63.494 81.5027C63.2486 81.507 62.992 81.5399 62.751 81.4975C62.2594 81.4094 61.8196 81.196 61.4593 80.9169C61.2925 80.7674 61.1275 80.6163 60.9789 80.459C60.8579 80.2862 60.7378 80.116 60.6203 79.9484C60.4026 79.6097 60.2644 79.2477 60.1434 78.9142C60.0544 78.5712 59.9507 78.2515 59.924 77.9491C59.8894 77.6475 59.8721 77.3711 59.8583 77.13C59.8574 76.8872 59.8851 76.6747 59.8972 76.5019C59.9291 76.1563 59.9594 75.9636 59.9594 75.9636C59.9594 75.9636 60.0285 76.1537 60.1305 76.4777C60.178 76.6375 60.2367 76.8328 60.3033 77.0557C60.3905 77.2717 60.4873 77.5119 60.578 77.7737C60.6713 78.0355 60.8346 78.2878 60.9538 78.5712C61.1076 78.8338 61.2804 79.106 61.4714 79.3557C61.5742 79.4732 61.6787 79.5933 61.7841 79.7142C61.9068 79.8093 62.0295 79.9009 62.1453 80.0028C62.3976 80.1678 62.6611 80.2871 62.9315 80.3346C63.0655 80.364 63.2002 80.3329 63.3359 80.3475L63.7359 80.2482C63.8612 80.1791 63.9865 80.1056 64.1195 80.0443C64.2431 79.9631 64.3502 79.8482 64.4686 79.7548C64.5956 79.6702 64.6716 79.5241 64.777 79.4136C64.8695 79.29 64.9913 79.1924 65.0596 79.0533C65.1987 78.7846 65.3948 78.5504 65.4968 78.2999C65.6065 78.0519 65.7223 77.8238 65.8268 77.6164C65.9106 77.3935 65.9832 77.2 66.0428 77.0402C66.1655 76.7213 66.2484 76.5416 66.2484 76.5416Z" fill="#352C38"/>
<path d="M69.701 71.762C69.6258 72.7202 69.491 73.6619 69.3347 74.5985C69.1835 75.5368 68.9986 76.4656 68.8007 77.3909C68.6037 78.3171 68.3851 79.2373 68.1484 80.1523C67.9272 81.0716 67.6524 81.9771 67.401 82.8886L67.2196 82.2708C67.6628 82.7279 68.094 83.197 68.4983 83.6964C68.8992 84.2001 69.2854 84.7177 69.6137 85.3C69.0046 85.0252 68.4534 84.6866 67.916 84.3332C67.382 83.9755 66.8766 83.5884 66.3815 83.1884L66.1007 82.9612L66.2001 82.5706C66.4325 81.6539 66.6407 80.7312 66.9034 79.8231C67.1496 78.9107 67.414 78.0027 67.7017 77.1006C67.9868 76.1978 68.2858 75.2992 68.6184 74.4093C68.9441 73.5176 69.2932 72.632 69.701 71.762Z" fill="#D8866C"/>
<path d="M83.4222 70.2603C83.4222 70.2603 82.7681 69.8525 81.8359 69.4343C81.6086 69.3203 81.3417 69.2408 81.085 69.1276C80.8112 69.049 80.5442 68.9263 80.2478 68.865C80.1035 68.8261 79.9575 68.7872 79.8098 68.7466C79.6577 68.7233 79.5057 68.6982 79.3545 68.6654C79.0546 68.5885 78.735 68.598 78.4265 68.5479C78.1103 68.541 77.7941 68.5341 77.483 68.528C77.1703 68.5634 76.8566 68.5548 76.5508 68.5876C76.2475 68.6352 75.9477 68.6697 75.6574 68.6974C75.3731 68.7527 75.0992 68.8045 74.8392 68.8451C74.3147 68.9116 73.8896 69.0516 73.5639 69.0931C73.2434 69.1484 73.0464 69.1682 73.0464 69.1682C73.0464 69.1682 73.1673 69.024 73.4024 68.7907C73.5207 68.6766 73.6641 68.5323 73.8413 68.3846C74.0115 68.2239 74.2188 68.0658 74.4659 67.9267C74.7079 67.7772 74.9714 67.607 75.266 67.4575C75.571 67.3322 75.8993 67.2061 76.2458 67.0869C76.5957 66.9815 76.9759 66.9236 77.3595 66.857C77.7474 66.8156 78.15 66.8199 78.5483 66.8259C78.9449 66.8925 79.351 66.9011 79.7268 67.035C80.1105 67.1327 80.4742 67.27 80.8068 67.4437C81.1507 67.5897 81.4393 67.8152 81.7192 67.9984C81.9819 68.2135 82.2255 68.4157 82.4182 68.6369C82.8251 69.0516 83.0731 69.4741 83.2252 69.7705C83.3764 70.072 83.4222 70.2603 83.4222 70.2603Z" fill="#352C38"/>
<path d="M66.7538 87.9049C66.7538 87.9049 67.2455 88.305 67.9876 88.6324C68.1803 88.7007 68.3747 88.7905 68.5924 88.8415C68.8033 88.9115 69.0365 88.934 69.2672 88.9737C69.5031 88.9919 69.7442 89.0152 69.9921 89.0031C70.241 88.9841 70.4924 88.9875 70.7473 88.9253C71.003 88.9011 71.257 88.8381 71.5102 88.7663L71.8895 88.6748C72.0139 88.6316 72.1366 88.5892 72.2575 88.5469C72.4986 88.4605 72.7491 88.4112 72.9695 88.3084C73.1915 88.2143 73.411 88.1382 73.6175 88.0682C73.8248 88.0017 74.0028 87.911 74.1722 87.8505C74.3372 87.7814 74.4892 87.7313 74.6145 87.6872C74.8659 87.6025 75.0197 87.5619 75.0197 87.5619C75.0197 87.5619 74.9342 87.6889 74.7666 87.898C74.6819 88.0009 74.58 88.1296 74.4521 88.2644C74.3242 88.3992 74.1929 88.572 74.0097 88.7076C73.6581 89.0014 73.2416 89.3487 72.7129 89.6122C72.4588 89.7582 72.1815 89.8904 71.8774 89.9794C71.5845 90.0943 71.2717 90.1738 70.9443 90.2161C70.6246 90.2809 70.2893 90.2792 69.9619 90.268C69.6362 90.2568 69.3113 90.1833 69.0115 90.1004C68.7108 90.0019 68.4335 89.8818 68.1915 89.7271C67.9384 89.5992 67.7414 89.4057 67.5617 89.2476C67.2083 88.9115 67.0096 88.5573 66.8921 88.3128C66.7798 88.0587 66.7538 87.9049 66.7538 87.9049Z" fill="#D8866C"/>
<path d="M91.8678 84.4101C92.5435 84.4101 93.0912 83.8623 93.0912 83.1867C93.0912 82.511 92.5435 81.9632 91.8678 81.9632C91.1921 81.9632 90.6443 82.511 90.6443 83.1867C90.6443 83.8623 91.1921 84.4101 91.8678 84.4101Z" fill="white"/>
<path d="M94.0935 78.9591C93.747 78.5038 93.3893 78.0718 93.0178 77.7011C92.921 77.6138 92.8234 77.5292 92.7249 77.4566C92.629 77.3797 92.5253 77.3184 92.4268 77.2786C92.3266 77.2346 92.2341 77.2138 92.1469 77.2069C92.0605 77.2008 91.9784 77.2311 91.8946 77.2579L92.089 76.9667C92.0518 78.153 91.9533 79.3384 91.6458 80.5169C91.4125 79.322 91.3883 78.1331 91.4254 76.946L91.4323 76.7222L91.6198 76.6539C91.8021 76.5874 91.9896 76.5416 92.1883 76.5598C92.286 76.558 92.3724 76.5943 92.464 76.6142C92.559 76.6315 92.6264 76.6859 92.7067 76.7231C92.8579 76.8069 92.9884 76.9097 93.0999 77.0185C93.2191 77.124 93.309 77.2484 93.4023 77.3667C93.7531 77.8532 93.9725 78.3958 94.0935 78.9591Z" fill="#D8866C"/>
<path d="M81.9775 281.633C81.9775 281.633 81.0306 330.52 85.8534 336.193C85.8534 336.193 118.48 346.607 92.9045 333.344L100.913 282.643L81.9775 281.633Z" fill="#FFAC9D"/>
<path opacity="0.2" d="M82.1616 308.537C81.7201 294.982 81.9776 281.633 81.9776 281.633L100.914 282.642L96.9792 307.551C92.0492 307.832 87.1072 308.181 82.1616 308.537Z" fill="#352C38"/>
<path d="M95.4481 334.511C95.4481 334.511 105.157 339.447 103.063 340.529C100.967 341.611 84.6646 336.517 84.6646 336.517L84.0926 332.906C84.0926 332.906 99.2472 338.777 95.4481 334.511Z" fill="#352C38"/>
<path d="M55.5236 285.592C55.5236 285.592 43.3826 333.114 37.2517 337.458C37.2517 337.458 3.2386 339.796 31.2616 333.03L37.1264 282.078L55.5236 285.592Z" fill="#FFAC9D"/>
<path opacity="0.2" d="M48.1666 311.578C52.2067 298.568 55.5236 285.592 55.5236 285.592L37.1264 282.078L34.245 307.11C38.8899 308.551 43.527 310.061 48.1666 311.578Z" fill="#352C38"/>
<path d="M28.5158 333.557C28.5158 333.557 17.9041 336.029 19.62 337.572C21.3368 339.116 38.3032 338.054 38.3032 338.054L39.8143 334.696C39.8143 334.696 23.7396 336.783 28.5158 333.557Z" fill="#352C38"/>
<path d="M97.4354 147.425L59.2345 151.263C37.339 171.412 27.5559 299.984 27.5559 299.984C42.4634 305.741 59.7002 302.383 59.7002 302.383L77.8684 209.791L75.539 301.902C89.5151 306.699 104.888 303.821 104.888 303.821C104.888 303.821 118.398 216.028 118.864 188.202C119.331 160.378 97.4354 147.425 97.4354 147.425Z" fill="#765E69"/>
<path opacity="0.2" d="M42.5282 193.182C54.0401 199.618 77.8692 209.792 77.8692 209.792L59.701 302.383C59.701 302.383 42.4642 305.742 27.5568 299.985C27.5568 299.985 32.2863 237.833 42.5282 193.182Z" fill="#352C38"/>
<path opacity="0.2" d="M55.0173 156.691C56.3703 154.449 57.7743 152.606 59.2353 151.263L97.4362 147.425C97.4362 147.425 98.3564 147.972 99.8105 149.074C95.4205 152.435 83.3392 158.58 55.0173 156.691Z" fill="#352C38"/>
<path d="M26.3627 108.468C21.2867 98.9218 28.8286 109.598 28.8286 109.598C21.4137 92.8635 30.8089 108.795 30.8089 108.795C24.6209 94.6493 32.5654 108.001 32.5654 108.001C37.3113 98.4388 34.0065 110.341 34.0065 110.341L50.2722 135.348L57.9938 109.959C59.625 110.777 61.2986 111.515 62.9963 112.202L70.5244 122.014C70.5244 122.014 58.7334 150.358 50.0519 151.443C41.3695 152.527 34.9232 128.426 28.7361 114.824C24.4395 105.377 25.2888 106.567 26.3627 108.468Z" fill="#FFAC9D"/>
<path opacity="0.1" d="M26.3627 108.468C21.2867 98.9218 28.8286 109.598 28.8286 109.598C21.4137 92.8635 30.8089 108.795 30.8089 108.795C24.6209 94.6493 32.5654 108.001 32.5654 108.001C37.3113 98.4388 34.0065 110.341 34.0065 110.341L50.2722 135.348L57.9938 109.959C59.625 110.777 61.2986 111.515 62.9963 112.202L70.5244 122.014C70.5244 122.014 58.7334 150.358 50.0519 151.443C41.3695 152.527 34.9232 128.426 28.7361 114.824C24.4395 105.377 25.2888 106.567 26.3627 108.468Z" fill="#352C38"/>
<path d="M47.6223 113.363L28.1927 119.12L25.3138 90.2749L44.7435 85.0581L47.6223 113.363Z" fill="#6F96BD"/>
<path d="M25.3138 90.2749L19.1976 83.4389L21.8958 112.223L28.1927 119.12L25.3138 90.2749Z" fill="#5E88AA"/>
<path d="M55.8977 108.266L63.214 104.008C63.214 104.008 61.7746 114.802 74.008 115.283C86.2414 115.762 95.1164 101.13 95.1164 101.13C95.1164 101.13 105.551 105.388 107.529 113.843C109.509 122.298 98.9543 147.665 98.9543 147.665C81.2034 155.581 60.3343 151.263 60.3343 151.263C47.262 131.114 55.8977 108.266 55.8977 108.266Z" fill="#FC6A5A"/>
<path opacity="0.3" d="M76.5775 134.942C84.9739 136.819 93.6009 138.376 102.256 139.007C100.477 144.005 98.9551 147.664 98.9551 147.664C81.2042 155.58 60.3352 151.262 60.3352 151.262C53.0033 139.962 52.5004 127.813 53.4716 119.322C58.8387 127.584 66.3996 132.666 76.5775 134.942Z" fill="#352C38"/>
<path d="M58.177 122.239L51.2209 118.401C51.2209 118.401 52.8996 104.968 63.2141 104.008L58.177 122.239Z" fill="#FC6A5A"/>
<path d="M95.5968 132.553L83.6027 119.06L59.136 137.111L42.8245 111.445C42.8245 111.445 46.9026 99.6908 41.3851 109.046C41.3851 109.046 33.4691 95.3734 39.4662 109.766C39.4662 109.766 30.1108 93.4544 37.307 110.486C37.307 110.486 28.6713 98.012 35.8676 111.445C35.8676 111.445 28.6713 101.37 36.1078 114.564C43.5442 127.757 48.8207 153.903 58.1761 153.184C67.5315 152.462 95.5968 132.553 95.5968 132.553Z" fill="#FFAC9D"/>
<path opacity="0.1" d="M82.0432 120.211L83.6027 119.06L95.5968 132.553C95.5968 132.553 94.6568 133.219 93.0765 134.304C89.0416 129.883 85.183 125.321 82.0432 120.211Z" fill="#352C38"/>
</svg>
